<svg id="visual" viewBox="0 0 900 600" width="900" height="600" xmlns="http://www.w3.org/2000/svg" xmlns:xlink="http://www.w3.org/1999/xlink" version="1.1"><path d="M0 399L9.3 390.3C18.7 381.7 37.3 364.3 56.2 358.7C75 353 94 359 112.8 375.8C131.7 392.7 150.3 420.3 169 425.5C187.7 430.7 206.3 413.3 225 399.5C243.7 385.7 262.3 375.3 281.2 363.8C300 352.3 319 339.7 337.8 336.7C356.7 333.7 375.3 340.3 394 354.7C412.7 369 431.3 391 450 390.3C468.7 389.7 487.3 366.3 506.2 356C525 345.7 544 348.3 562.8 350C581.7 351.7 600.3 352.3 619 351.3C637.7 350.3 656.3 347.7 675 343.8C693.7 340 712.3 335 731.2 347.7C750 360.3 769 390.7 787.8 402.3C806.7 414 825.3 407 844 403.8C862.7 400.7 881.3 401.3 890.7 401.7L900 402L900 601L890.7 601C881.3 601 862.7 601 844 601C825.3 601 806.7 601 787.8 601C769 601 750 601 731.2 601C712.3 601 693.7 601 675 601C656.3 601 637.7 601 619 601C600.3 601 581.7 601 562.8 601C544 601 525 601 506.2 601C487.3 601 468.7 601 450 601C431.3 601 412.7 601 394 601C375.3 601 356.7 601 337.8 601C319 601 300 601 281.2 601C262.3 601 243.7 601 225 601C206.3 601 187.7 601 169 601C150.3 601 131.7 601 112.8 601C94 601 75 601 56.2 601C37.3 601 18.7 601 9.3 601L0 601Z" fill="#ff3100" stroke-linecap="round" stroke-linejoin="miter"></path></svg>