<svg id="visual" viewBox="0 0 675 900" width="675" height="900" xmlns="http://www.w3.org/2000/svg" xmlns:xlink="http://www.w3.org/1999/xlink" version="1.1"><path d="M0 163L10.2 157C20.3 151 40.7 139 61.2 131.5C81.7 124 102.3 121 122.8 122.5C143.3 124 163.7 130 184 136C204.3 142 224.7 148 245.2 146.5C265.7 145 286.3 136 306.8 134.5C327.3 133 347.7 139 368.2 137.5C388.7 136 409.3 127 429.8 131.5C450.3 136 470.7 154 491 154C511.3 154 531.7 136 552.2 128.5C572.7 121 593.3 124 613.8 128.5C634.3 133 654.7 139 664.8 142L675 145L675 0L664.8 0C654.7 0 634.3 0 613.8 0C593.3 0 572.7 0 552.2 0C531.7 0 511.3 0 491 0C470.7 0 450.3 0 429.8 0C409.3 0 388.7 0 368.2 0C347.7 0 327.3 0 306.8 0C286.3 0 265.7 0 245.2 0C224.7 0 204.3 0 184 0C163.7 0 143.3 0 122.8 0C102.3 0 81.7 0 61.2 0C40.7 0 20.3 0 10.2 0L0 0Z" fill="#640716"></path><path d="M0 307L10.2 299.5C20.3 292 40.7 277 61.2 262C81.7 247 102.3 232 122.8 224.5C143.3 217 163.7 217 184 226C204.3 235 224.7 253 245.2 257.5C265.7 262 286.3 253 306.8 241C327.3 229 347.7 214 368.2 217C388.7 220 409.3 241 429.8 257.5C450.3 274 470.7 286 491 277C511.3 268 531.7 238 552.2 229C572.7 220 593.3 232 613.8 233.5C634.3 235 654.7 226 664.8 221.5L675 217L675 143L664.8 140C654.7 137 634.3 131 613.8 126.5C593.3 122 572.7 119 552.2 126.5C531.7 134 511.3 152 491 152C470.7 152 450.3 134 429.8 129.5C409.3 125 388.7 134 368.2 135.5C347.7 137 327.3 131 306.8 132.5C286.3 134 265.7 143 245.2 144.5C224.7 146 204.3 140 184 134C163.7 128 143.3 122 122.8 120.5C102.3 119 81.7 122 61.2 129.5C40.7 137 20.3 149 10.2 155L0 161Z" fill="#40090f"></path><path d="M0 469L10.2 455.5C20.3 442 40.7 415 61.2 409C81.7 403 102.3 418 122.8 415C143.3 412 163.7 391 184 383.5C204.3 376 224.7 382 245.2 380.5C265.7 379 286.3 370 306.8 373C327.3 376 347.7 391 368.2 425.5C388.7 460 409.3 514 429.8 517C450.3 520 470.7 472 491 461.5C511.3 451 531.7 478 552.2 505C572.7 532 593.3 559 613.8 574C634.3 589 654.7 592 664.8 593.5L675 595L675 215L664.8 219.5C654.7 224 634.3 233 613.8 231.5C593.3 230 572.7 218 552.2 227C531.7 236 511.3 266 491 275C470.7 284 450.3 272 429.8 255.5C409.3 239 388.7 218 368.2 215C347.7 212 327.3 227 306.8 239C286.3 251 265.7 260 245.2 255.5C224.7 251 204.3 233 184 224C163.7 215 143.3 215 122.8 222.5C102.3 230 81.7 245 61.2 260C40.7 275 20.3 290 10.2 297.5L0 305Z" fill="#210000"></path><path d="M0 730L10.2 728.5C20.3 727 40.7 724 61.2 713.5C81.7 703 102.3 685 122.8 685C143.3 685 163.7 703 184 709C204.3 715 224.7 709 245.2 712C265.7 715 286.3 727 306.8 722.5C327.3 718 347.7 697 368.2 706C388.7 715 409.3 754 429.8 764.5C450.3 775 470.7 757 491 742C511.3 727 531.7 715 552.2 721C572.7 727 593.3 751 613.8 767.5C634.3 784 654.7 793 664.8 797.5L675 802L675 593L664.8 591.5C654.7 590 634.3 587 613.8 572C593.3 557 572.7 530 552.2 503C531.7 476 511.3 449 491 459.5C470.7 470 450.3 518 429.8 515C409.3 512 388.7 458 368.2 423.5C347.7 389 327.3 374 306.8 371C286.3 368 265.7 377 245.2 378.5C224.7 380 204.3 374 184 381.5C163.7 389 143.3 410 122.8 413C102.3 416 81.7 401 61.2 407C40.7 413 20.3 440 10.2 453.5L0 467Z" fill="#1e0000"></path><path d="M0 901L10.2 901C20.3 901 40.7 901 61.2 901C81.7 901 102.3 901 122.8 901C143.3 901 163.7 901 184 901C204.3 901 224.7 901 245.2 901C265.7 901 286.3 901 306.8 901C327.3 901 347.7 901 368.2 901C388.7 901 409.3 901 429.8 901C450.3 901 470.7 901 491 901C511.3 901 531.7 901 552.2 901C572.7 901 593.3 901 613.8 901C634.3 901 654.7 901 664.8 901L675 901L675 800L664.8 795.5C654.7 791 634.3 782 613.8 765.5C593.3 749 572.7 725 552.2 719C531.7 713 511.3 725 491 740C470.7 755 450.3 773 429.8 762.5C409.3 752 388.7 713 368.2 704C347.7 695 327.3 716 306.8 720.5C286.3 725 265.7 713 245.2 710C224.7 707 204.3 713 184 707C163.7 701 143.3 683 122.8 683C102.3 683 81.7 701 61.2 711.5C40.7 722 20.3 725 10.2 726.5L0 728Z" fill="#1b0000"></path></svg>