<svg width="17" height="19" viewBox="0 0 17 19" fill="none" xmlns="http://www.w3.org/2000/svg">
<path d="M14.0384 17.51C15.1559 17.51 16.0346 16.5387 15.9418 15.4063L15.3051 7.63693C15.2226 6.63022 14.3951 5.85588 13.4017 5.85588H12.2942M12.2942 5.85588H8.47426M12.2942 5.85588V4.88471C12.2942 3.85441 11.8918 2.86633 11.1754 2.1378C10.459 1.40928 9.48741 1 8.47426 1C7.46111 1 6.48953 1.40928 5.77314 2.1378C5.05677 2.86633 4.6543 3.85441 4.6543 4.88471V5.85588M12.2942 5.85588V9.74059M4.6543 5.85588H3.54677C2.55341 5.85588 1.72588 6.63022 1.64339 7.63693L1.00673 15.4063C0.913933 16.5387 1.7927 17.51 2.91011 17.51H9.42925M4.6543 5.85588V9.74059" stroke="black" stroke-width="1.4" stroke-linecap="round" stroke-linejoin="round"/>
</svg>
