<svg width="52" height="50" viewBox="0 0 52 50" fill="none" xmlns="http://www.w3.org/2000/svg">
<path d="M47.0769 18.1909C46.3077 15.8575 46.8205 12.8575 45.4103 10.9345C44 9.01139 40.9744 8.52421 39.0256 7.08832C37.0769 5.65242 35.7436 2.96011 33.4103 2.21652C31.0769 1.47293 28.5641 2.88319 26 2.88319C23.4359 2.88319 20.8718 1.47293 18.5897 2.21652C16.3077 2.96011 14.9231 5.7037 12.9744 7.08832C11.0256 8.47293 8.05128 8.96011 6.58974 10.9345C5.1282 12.9088 5.69231 15.8575 4.92308 18.1909C4.15385 20.5242 2 22.4729 2 25.037C2 27.6011 4.20513 29.6268 4.92308 31.8832C5.64103 34.1396 5.17949 37.2165 6.58974 39.1396C8 41.0627 11.0256 41.5499 12.9744 42.9601C14.9231 44.3704 16.2564 47.114 18.5897 47.8575C20.9231 48.6011 23.4359 47.1909 26 47.1909C28.5641 47.1909 31.1282 48.6011 33.4103 47.8575C35.6923 47.114 37.0769 44.3704 39.0256 42.9601C40.9744 41.5499 44 41.114 45.4103 39.1396C46.8205 37.1652 46.3077 34.2165 47.0769 31.8832C47.8461 29.5499 50 27.6011 50 25.037C50 22.4729 47.7949 20.4473 47.0769 18.1909Z" fill="#FF0000"/>
<path d="M19.4615 18.6268H19.7179" stroke="black" stroke-width="3" stroke-linecap="round" stroke-linejoin="round"/>
<path d="M32.282 31.4473H32.5385" stroke="black" stroke-width="3" stroke-linecap="round" stroke-linejoin="round"/>
<path d="M18.3077 32.7293L33.6923 17.3447M47.0769 18.1909C46.3077 15.8575 46.8205 12.8575 45.4103 10.9345C44 9.01139 40.9744 8.52421 39.0256 7.08832C37.0769 5.65242 35.7436 2.96011 33.4103 2.21652C31.0769 1.47293 28.5641 2.88319 26 2.88319C23.4359 2.88319 20.8718 1.47293 18.5897 2.21652C16.3077 2.96011 14.9231 5.7037 12.9744 7.08832C11.0256 8.47293 8.05128 8.96011 6.58974 10.9345C5.1282 12.9088 5.69231 15.8575 4.92308 18.1909C4.15385 20.5242 2 22.4729 2 25.037C2 27.6011 4.20513 29.6268 4.92308 31.8832C5.64103 34.1396 5.17949 37.2165 6.58974 39.1396C8 41.0627 11.0256 41.5499 12.9744 42.9601C14.9231 44.3704 16.2564 47.114 18.5897 47.8575C20.9231 48.6011 23.4359 47.1909 26 47.1909C28.5641 47.1909 31.1282 48.6011 33.4103 47.8575C35.6923 47.114 37.0769 44.3704 39.0256 42.9601C40.9744 41.5499 44 41.114 45.4103 39.1396C46.8205 37.1652 46.3077 34.2165 47.0769 31.8832C47.8462 29.5499 50 27.6011 50 25.037C50 22.4729 47.7949 20.4473 47.0769 18.1909Z" stroke="black" stroke-width="3" stroke-linecap="round" stroke-linejoin="round"/>
</svg>
