<svg width="22" height="22" viewBox="0 0 22 22" fill="none" xmlns="http://www.w3.org/2000/svg">
<path d="M22 11.0659C22 8.95109 21.3976 6.88058 20.2641 5.0995C19.1307 3.31843 17.5136 1.90138 15.6045 1.01615C13.6953 0.130908 11.574 -0.18545 9.4917 0.104529C7.40937 0.394508 5.45324 1.27868 3.85492 2.65236C2.2566 4.02604 1.08301 5.83169 0.473119 7.85554C-0.136774 9.87939 -0.157433 12.0367 0.413587 14.072C0.984606 16.1073 2.12339 17.9353 3.69511 19.3397C5.26683 20.7441 7.20566 21.666 9.28205 21.9963V14.2622H6.48741V11.0659H9.28205V8.62836C9.22189 8.05907 9.28693 7.48343 9.47258 6.94225C9.65821 6.40107 9.9599 5.90759 10.3563 5.49679C10.7526 5.08598 11.2339 4.76791 11.7661 4.5651C12.2983 4.3623 12.8683 4.27974 13.4357 4.32326C14.2609 4.33481 15.0841 4.40709 15.8988 4.53952V7.26297H14.5106C14.2743 7.23153 14.0339 7.25394 13.8074 7.32854C13.5808 7.40315 13.3738 7.52804 13.2017 7.69397C13.0296 7.85991 12.8967 8.06265 12.813 8.2872C12.7293 8.51175 12.6968 8.75236 12.718 8.99124V11.0659H15.7695L15.2812 14.2659H12.718V22C15.3058 21.5876 17.6624 20.2598 19.3639 18.2554C21.0654 16.2511 22.0002 13.7017 22 11.0659Z" fill="black"/>
</svg>
