<svg width="1183" height="1391" viewBox="0 0 1183 1391" fill="none" xmlns="http://www.w3.org/2000/svg">
<path d="M195.02 649.858L164.87 584.378L91.1047 297.604L72.3469 252.953L99.3903 186.438C99.3903 186.438 137.711 191.847 166.941 224.874C202.5 265.151 260.5 385.638 260.5 385.638L248.301 290.584L314.471 119.002C314.471 119.002 343.471 115.895 351.181 123.836C364.876 137.875 388.236 236.382 396.522 267.568C404.808 298.754 416.315 341.333 430.815 359.976C445.315 378.618 463.037 382.876 463.037 382.876L514.937 182.41L527.366 0.58687C527.366 0.58687 545.548 0.471792 570.98 5.76539C590.199 9.79312 603.087 16.3526 609.301 24.0628C615.516 31.773 615.746 154.331 615.746 154.331C615.746 154.331 725.415 60.8878 728.983 61.9235C736.578 63.9949 760.169 69.1734 772.597 82.7526C785.026 96.2168 774.669 146.161 765.347 179.418C756.026 212.676 723.804 320.734 723.804 320.734L752.919 309.687L759.363 315.901L813.565 232.699C813.565 232.699 833.128 232.584 849.009 240.41C866.271 248.925 876.628 269.87 876.628 269.87L1015.87 68.3679C1015.87 68.3679 1026.46 77.8043 1035.78 87.1256C1045.1 96.4469 1051.66 103.006 1052.12 112.443C1052.58 121.764 1018.98 183.791 1003.44 214.977C987.909 246.164 961.901 308.536 961.901 308.536L1075.14 222.112C1075.14 222.112 1112.65 227.406 1113.8 239.834C1114.84 252.263 1094.93 275.278 1075.14 309.572C1055.34 343.865 1022.2 410.38 1010.69 433.166C999.186 455.951 1014.84 457.102 1014.84 457.102L1150.51 371.369C1150.51 371.369 1179.74 377.353 1182.51 390.932C1185.61 406.467 1152.01 437.423 1130.15 462.28C1108.28 487.252 1061.56 547.438 1037.74 594.275C1013.92 641.112 997.92 670.342 997.92 670.342L791.355 875.296L241.742 842.038L195.02 649.858Z" fill="url(#paint0_radial_43_117)"/>
<path d="M882.152 423.614C868.342 426.836 824.728 502.328 783.99 617.175C759.478 686.222 743.252 761.714 744.173 797.848C745.094 833.983 799.641 822.935 799.641 822.935L822.771 747.904C822.771 747.904 848.664 659.869 879.275 594.16C915.064 517.058 961.441 468.034 957.988 456.181C953.385 440.3 901.6 419.011 882.152 423.614Z" fill="#FBDE93"/>
<path d="M1019.21 227.291C999.877 238.568 956.262 311.528 943.258 339.377C930.254 367.226 929.794 419.586 944.064 426.376C961.671 434.662 981.234 375.511 1010.92 326.373C1040.61 277.235 1075.71 221.652 1075.71 221.652C1075.71 221.652 1041.42 214.287 1019.21 227.291Z" fill="#FBDE93"/>
<path d="M1092.4 371.829C1062.82 384.372 1007.7 443.177 988.599 472.752C953.385 527.415 927.492 588.521 918.171 613.493C908.965 638.465 901.485 672.758 930.254 656.992C959.024 641.227 995.964 567.116 1043.26 500.486C1098.04 423.154 1150.74 370.793 1150.74 370.793C1150.74 370.793 1116.45 361.587 1092.4 371.829Z" fill="#FBDE93"/>
<path d="M968.23 42.015C956.838 40.6341 925.651 123.49 908.044 163.307C890.437 203.124 866.962 255.83 866.962 255.83C866.962 255.83 853.382 360.666 872.831 362.508C892.279 364.349 930.37 236.497 958.794 177.922C986.528 120.844 1015.76 68.0227 1015.76 68.0227C1015.76 68.0227 990.44 44.7769 968.23 42.015Z" fill="#FBDE93"/>
<path d="M763.391 249.616C753.149 260.433 758.903 316.131 758.903 316.131C758.903 316.131 798.72 345.821 806.2 339.262C813.68 332.702 814.025 232.124 814.025 232.124C814.025 232.124 780.077 232.009 763.391 249.616Z" fill="#FBDE93"/>
<path d="M681.11 325.452C666.725 337.536 676.507 394.154 672.824 444.903C667.301 520.855 645.091 676.441 638.531 721.897C631.972 767.352 625.527 817.296 625.527 817.296L696.876 806.134C696.876 806.134 724.61 594.045 735.772 512.454C746.935 430.864 763.506 315.21 752.459 308.651C741.296 302.322 698.717 310.607 681.11 325.452Z" fill="#FBDE93"/>
<path d="M672.479 54.9037C654.297 58.3561 615.861 154.331 615.861 154.331C615.861 154.331 613.559 223.608 613.559 256.981C613.559 290.354 607.115 330.171 618.163 330.171C629.21 330.171 650.615 266.302 672.825 210.72C695.035 155.137 729.098 61.9235 729.098 61.9235C729.098 61.9235 698.257 50.0705 672.479 54.9037Z" fill="#FBDE93"/>
<path d="M463.382 19.8049C450.839 33.0389 470.747 67.102 472.589 160.545C474.43 254.104 462.922 382.761 462.922 382.761C462.922 382.761 472.819 382.071 479.033 401.289C484.327 417.515 492.957 516.137 504.005 512.454C515.168 508.772 528.977 442.947 540.139 331.782C551.302 220.616 546.584 134.538 542.901 99.3239C539.219 64.11 527.251 0.35672 527.251 0.35672C527.251 0.35672 481.91 0.35672 463.382 19.8049Z" fill="#FBDE93"/>
<path d="M314.471 119.002C314.471 119.002 260.96 122.8 246.23 151.569C231.385 180.339 236.103 194.263 238.865 221.997C241.627 249.731 250.373 305.084 250.373 305.084C250.373 305.084 299.511 366.19 326.324 351.345C353.137 336.615 314.471 119.002 314.471 119.002Z" fill="#FBDE93"/>
<path d="M99.3902 186.438C99.3902 186.438 69.7001 180.914 52.0931 184.597C34.4862 188.279 35.4068 204.966 43.8075 216.128C52.0931 227.291 90.4141 296.568 90.4141 296.568C90.4141 296.568 101.807 296.798 116.652 302.322C131.497 307.845 156.929 321.655 155.894 299.445C154.052 260.663 99.3902 186.438 99.3902 186.438Z" fill="#FBDE93"/>
<path d="M183.052 623.85C183.052 623.85 127.124 510.728 85.4658 448.586C43.8075 386.444 0.192871 338.341 0.192871 328.214C0.192871 317.972 28.9624 307.845 45.5336 303.242C62.1049 298.639 90.9895 297.604 90.9895 297.604C90.9895 297.604 159.461 413.372 187.31 476.435C215.159 539.498 241.051 612.918 234.607 621.894C228.738 629.949 187.195 624.54 183.052 623.85Z" fill="#FBDE93"/>
<path d="M220.682 421.773C216.31 437.999 237.369 511.649 250.373 564.47C263.376 617.291 279.142 672.873 279.142 672.873L323.562 763.67L372.701 746.063C372.701 746.063 346.808 696.004 331.963 644.219C317.118 592.204 297.9 430.864 278.106 409.805C264.297 394.96 223.559 411.646 220.682 421.773Z" fill="#FBDE93"/>
<path d="M374.542 403.245C362.919 410.84 380.987 533.859 390.308 584.838C399.629 635.818 419.077 689.56 429.204 714.532C439.446 739.504 469.021 802.566 469.021 802.566C469.021 802.566 499.632 838.701 500.553 835.018C501.473 831.336 514.477 785.88 514.477 785.88C514.477 785.88 473.624 665.393 467.065 613.493C460.621 561.593 450.379 404.166 440.252 398.642C430.125 393.118 393.07 391.277 374.542 403.245Z" fill="#FBDE93"/>
<path d="M581.107 406.007C567.183 418.896 553.373 589.442 547.735 652.389C542.096 715.337 537.493 807.975 537.493 807.975L599.52 803.372C599.52 803.372 622.651 574.597 626.333 544.906C630.016 515.216 646.702 447.665 638.416 420.737C630.131 394.039 593.075 394.96 581.107 406.007Z" fill="#FBDE93"/>
<path d="M164.64 644.909C160.727 653.77 281.674 1315.58 283.63 1325.48C285.587 1335.38 281.674 1344.35 300.432 1353.22C319.305 1362.08 348.765 1366.79 367.637 1368.87C386.51 1370.82 516.433 1371.05 517.469 1355.29C518.505 1339.41 906.893 773.682 906.893 773.682C906.893 773.682 978.472 653.655 973.524 643.759C968.575 633.862 949.242 638.465 928.183 652.85C907.124 667.349 887.675 703.139 828.525 742.841C764.427 785.88 679.499 794.971 594.111 793.935C515.398 792.9 421.839 778.63 354.864 729.031C295.944 685.302 278.567 653.77 226.091 639.846C179.83 627.532 164.64 644.909 164.64 644.909Z" fill="#FD703F"/>
<path d="M256.126 688.179L365.911 1369.1C365.911 1369.1 496.755 1387.97 598.714 1389.93C700.788 1391.88 822.426 1370.59 822.426 1370.59L910.806 1071.85L985.837 677.707C985.837 677.707 967.309 659.179 946.48 674.484C930.484 686.222 881.116 762.634 793.887 796.352C695.495 834.328 518.159 837.09 407.454 790.368C305.955 747.674 274.999 692.091 256.126 688.179Z" fill="#FF0800"/>
<path d="M886.064 1349.65C863.739 1363 811.724 1371.97 811.724 1371.97C811.724 1371.97 863.279 1121.33 891.933 990.489C920.587 859.645 961.901 638.35 961.901 638.35C961.901 638.35 978.472 635.703 995.503 637.775C1014.84 640.191 1026.34 645.83 1030.26 651.929C1036.59 661.826 998.495 846.641 961.21 1027.08C927.147 1192.8 897.917 1342.63 886.064 1349.65Z" fill="#DC0D25"/>
<path d="M435.703 1051.88C431.58 1051.88 426.127 1053.74 426.127 1061.72V1070.23H441.156V1083.66H426.127V1135H410.566V1083.66H399.261V1070.23H410.566V1061.32C410.566 1046.82 419.876 1038.04 433.176 1038.04C437.033 1038.04 440.225 1038.84 441.289 1039.37V1052.54C440.358 1052.27 438.629 1051.88 435.703 1051.88ZM448.184 1117.44C448.184 1105.87 456.696 1099.49 467.735 1097.89L484.36 1095.37C488.084 1094.83 489.148 1092.97 489.148 1090.71C489.148 1085.26 485.424 1080.87 476.912 1080.87C468.799 1080.87 464.277 1086.06 463.612 1092.57L449.514 1089.38C450.711 1078.21 460.819 1068.23 476.779 1068.23C496.729 1068.23 504.31 1079.54 504.31 1092.44V1124.63C504.31 1130.48 504.975 1134.33 505.108 1135H490.744C490.611 1134.6 490.079 1131.94 490.079 1126.75C487.02 1131.67 480.636 1137 470.129 1137C456.563 1137 448.184 1127.68 448.184 1117.44ZM473.055 1124.89C481.7 1124.89 489.148 1120.77 489.148 1108.13V1105.21L472.257 1107.73C467.469 1108.53 463.612 1111.19 463.612 1116.51C463.612 1120.9 466.937 1124.89 473.055 1124.89ZM533.204 1102.41C533.204 1114.78 540.12 1123.03 550.627 1123.03C560.735 1123.03 567.784 1114.65 567.784 1102.28C567.784 1089.91 560.868 1082.2 550.76 1082.2C540.652 1082.2 533.204 1090.05 533.204 1102.41ZM582.68 1038.71V1123.16C582.68 1129.01 583.212 1133.94 583.345 1135H568.582C568.316 1133.54 567.917 1129.28 567.917 1126.62C564.858 1132.07 558.075 1136.6 548.898 1136.6C530.278 1136.6 517.776 1121.97 517.776 1102.41C517.776 1083.79 530.411 1068.5 548.632 1068.5C559.937 1068.5 565.656 1073.69 567.651 1077.81V1038.71H582.68ZM618.133 1135H602.838V1070.23H617.601V1078.47C621.325 1071.82 629.438 1068.37 636.753 1068.37C645.265 1068.37 652.713 1072.22 656.171 1079.8C661.225 1071.29 668.806 1068.37 677.185 1068.37C688.889 1068.37 700.061 1075.81 700.061 1092.97V1135H685.165V1095.5C685.165 1087.92 681.308 1082.2 672.663 1082.2C664.55 1082.2 659.23 1088.58 659.23 1096.56V1135H644.068V1095.5C644.068 1088.05 640.344 1082.2 631.566 1082.2C623.32 1082.2 618.133 1088.32 618.133 1096.56V1135ZM714.964 1117.44C714.964 1105.87 723.476 1099.49 734.515 1097.89L751.14 1095.37C754.864 1094.83 755.928 1092.97 755.928 1090.71C755.928 1085.26 752.204 1080.87 743.692 1080.87C735.579 1080.87 731.057 1086.06 730.392 1092.57L716.294 1089.38C717.491 1078.21 727.599 1068.23 743.559 1068.23C763.509 1068.23 771.09 1079.54 771.09 1092.44V1124.63C771.09 1130.48 771.755 1134.33 771.888 1135H757.524C757.391 1134.6 756.859 1131.94 756.859 1126.75C753.8 1131.67 747.416 1137 736.909 1137C723.343 1137 714.964 1127.68 714.964 1117.44ZM739.835 1124.89C748.48 1124.89 755.928 1120.77 755.928 1108.13V1105.21L739.037 1107.73C734.249 1108.53 730.392 1111.19 730.392 1116.51C730.392 1120.9 733.717 1124.89 739.835 1124.89Z" fill="white"/>
<defs>
<radialGradient id="paint0_radial_43_117" cx="0" cy="0" r="1" gradientUnits="userSpaceOnUse" gradientTransform="translate(599.255 -129.589) scale(956.621 956.621)">
<stop offset="0.447" stop-color="#FCC216"/>
<stop offset="0.59" stop-color="#FABB16"/>
<stop offset="0.794" stop-color="#F3A814"/>
<stop offset="0.921" stop-color="#ED9913"/>
</radialGradient>
</defs>
</svg>
