<svg width="51" height="50" viewBox="0 0 51 50" fill="none" xmlns="http://www.w3.org/2000/svg">
<path d="M8.49985 23.3182L7.21032 21.0066L4.05539 10.8828L3.25313 9.30659L4.40977 6.95847C4.40977 6.95847 6.04875 7.1494 7.29891 8.31534C8.81977 9.73722 11.3004 13.9907 11.3004 13.9907L10.7787 10.635L13.6088 4.57784C13.6088 4.57784 14.8491 4.46815 15.1788 4.74847C15.7645 5.24409 16.7637 8.72159 17.118 9.82253C17.4724 10.9235 17.9646 12.4266 18.5848 13.0847C19.2049 13.7428 19.9629 13.8932 19.9629 13.8932L22.1827 6.81628L22.7142 0.397529C22.7142 0.397529 23.4919 0.393467 24.5796 0.580342C25.4016 0.722529 25.9528 0.954092 26.2186 1.22628C26.4844 1.49847 26.4942 5.82503 26.4942 5.82503C26.4942 5.82503 31.1848 2.52628 31.3373 2.56284C31.6622 2.63597 32.6712 2.81878 33.2027 3.29815C33.7343 3.77347 33.2913 5.53659 32.8927 6.71065C32.494 7.88472 31.1159 11.6994 31.1159 11.6994L32.3611 11.3094L32.6367 11.5288L34.9549 8.59159C34.9549 8.59159 35.7916 8.58753 36.4709 8.86378C37.2091 9.1644 37.6521 9.90378 37.6521 9.90378L43.6076 2.79034C43.6076 2.79034 44.0604 3.12347 44.4591 3.45253C44.8577 3.78159 45.1383 4.01315 45.158 4.34628C45.1777 4.67534 43.7405 6.86503 43.076 7.96597C42.4116 9.0669 41.2992 11.2688 41.2992 11.2688L46.1423 8.21784C46.1423 8.21784 47.7469 8.40472 47.7961 8.84347C47.8404 9.28222 46.9889 10.0947 46.1423 11.3053C45.2958 12.516 43.8783 14.8641 43.3861 15.6685C42.8939 16.4728 43.5633 16.5135 43.5633 16.5135L49.3662 13.4869C49.3662 13.4869 50.6163 13.6982 50.7345 14.1775C50.8673 14.726 49.4302 15.8188 48.495 16.6963C47.5598 17.5778 45.5616 19.7025 44.5427 21.356C43.5239 23.0094 42.8398 24.0413 42.8398 24.0413L34.005 31.2766L10.4981 30.1025L8.49985 23.3182Z" fill="url(#paint0_radial_151_8)"/>
<path d="M37.8884 15.3312C37.2977 15.445 35.4323 18.11 33.69 22.1644C32.6416 24.6019 31.9477 27.2669 31.987 28.5425C32.0264 29.8181 34.3594 29.4281 34.3594 29.4281L35.3487 26.7794C35.3487 26.7794 36.4561 23.6715 37.7653 21.3519C39.296 18.63 41.2795 16.8994 41.1319 16.4809C40.935 15.9203 38.7202 15.1687 37.8884 15.3312Z" fill="#FBDE93"/>
<path d="M43.7503 8.40064C42.9234 8.79877 41.0581 11.3744 40.5019 12.3575C39.9457 13.3406 39.926 15.1891 40.5363 15.4288C41.2894 15.7213 42.1261 13.6331 43.3959 11.8985C44.6658 10.1638 46.167 8.20158 46.167 8.20158C46.167 8.20158 44.7002 7.94158 43.7503 8.40064Z" fill="#FBDE93"/>
<path d="M46.8806 13.5032C45.6157 13.946 43.2581 16.0219 42.4411 17.066C40.935 18.9957 39.8276 21.1528 39.4289 22.0344C39.0351 22.916 38.7152 24.1266 39.9457 23.57C41.1762 23.0135 42.7561 20.3972 44.779 18.045C47.1218 15.315 49.376 13.4666 49.376 13.4666C49.376 13.4666 47.9093 13.1416 46.8806 13.5032Z" fill="#FBDE93"/>
<path d="M41.5699 1.85998C41.0827 1.81123 39.7488 4.73623 38.9958 6.14185C38.2427 7.54748 37.2387 9.4081 37.2387 9.4081C37.2387 9.4081 36.6579 13.109 37.4897 13.174C38.3215 13.239 39.9506 8.7256 41.1663 6.65779C42.3525 4.64279 43.6027 2.7781 43.6027 2.7781C43.6027 2.7781 42.5199 1.95748 41.5699 1.85998Z" fill="#FBDE93"/>
<path d="M32.809 9.18873C32.3709 9.5706 32.617 11.5369 32.617 11.5369C32.617 11.5369 34.32 12.585 34.6399 12.3534C34.9598 12.1219 34.9746 8.57123 34.9746 8.57123C34.9746 8.57123 33.5226 8.56717 32.809 9.18873Z" fill="#FBDE93"/>
<path d="M29.2899 11.866C28.6746 12.2925 29.093 14.2913 28.9355 16.0828C28.6992 18.7641 27.7493 24.2566 27.4688 25.8613C27.1882 27.466 26.9126 29.2291 26.9126 29.2291L29.9642 28.835C29.9642 28.835 31.1503 21.3478 31.6278 18.4675C32.1052 15.5872 32.8139 11.5044 32.3414 11.2728C31.864 11.0494 30.0429 11.3419 29.2899 11.866Z" fill="#FBDE93"/>
<path d="M28.9207 2.31501C28.1431 2.43688 26.4992 5.82501 26.4992 5.82501C26.4992 5.82501 26.4007 8.27063 26.4007 9.44876C26.4007 10.6269 26.1251 12.0325 26.5976 12.0325C27.0701 12.0325 27.9856 9.77782 28.9355 7.81563C29.8854 5.85344 31.3423 2.56282 31.3423 2.56282C31.3423 2.56282 30.0232 2.14438 28.9207 2.31501Z" fill="#FBDE93"/>
<path d="M19.9777 1.07597C19.4412 1.54315 20.2927 2.74565 20.3714 6.0444C20.4502 9.34722 19.958 13.8891 19.958 13.8891C19.958 13.8891 20.3812 13.8647 20.647 14.5432C20.8734 15.116 21.2426 18.5975 21.7151 18.4675C22.1925 18.3375 22.7831 16.0138 23.2605 12.0894C23.738 8.16503 23.5362 5.12628 23.3787 3.88315C23.2212 2.64003 22.7093 0.389404 22.7093 0.389404C22.7093 0.389404 20.7701 0.389404 19.9777 1.07597Z" fill="#FBDE93"/>
<path d="M13.6087 4.57782C13.6087 4.57782 11.3201 4.71188 10.6901 5.72751C10.0552 6.74313 10.257 7.2347 10.3751 8.21376C10.4932 9.19282 10.8673 11.1469 10.8673 11.1469C10.8673 11.1469 12.9689 13.3041 14.1157 12.78C15.2625 12.26 13.6087 4.57782 13.6087 4.57782Z" fill="#FBDE93"/>
<path d="M4.40977 6.95844C4.40977 6.95844 3.13993 6.76344 2.38688 6.89344C1.63384 7.02344 1.67321 7.6125 2.03251 8.00657C2.38688 8.40063 4.02587 10.8463 4.02587 10.8463C4.02587 10.8463 4.51313 10.8544 5.14805 11.0494C5.78298 11.2444 6.87071 11.7319 6.82641 10.9478C6.74766 9.57875 4.40977 6.95844 4.40977 6.95844Z" fill="#FBDE93"/>
<path d="M7.98797 22.4C7.98797 22.4 5.59594 18.4066 3.81422 16.2128C2.03251 14.0191 0.167114 12.3209 0.167114 11.9634C0.167114 11.6019 1.39758 11.2444 2.10633 11.0819C2.81508 10.9194 4.05047 10.8828 4.05047 10.8828C4.05047 10.8828 6.97899 14.9697 8.17008 17.1959C9.36118 19.4222 10.4686 22.0141 10.193 22.3309C9.94196 22.6153 8.16516 22.4244 7.98797 22.4Z" fill="#FBDE93"/>
<path d="M9.59743 15.2663C9.4104 15.8391 10.3111 18.4391 10.8673 20.3038C11.4234 22.1685 12.0977 24.1306 12.0977 24.1306L13.9976 27.336L16.0992 26.7144C16.0992 26.7144 14.9918 24.9472 14.3569 23.1191C13.722 21.2828 12.9 15.5872 12.0534 14.8438C11.4628 14.3197 9.72048 14.9088 9.59743 15.2663Z" fill="#FBDE93"/>
<path d="M16.178 14.6122C15.6809 14.8803 16.4536 19.2231 16.8523 21.0228C17.2509 22.8225 18.0827 24.7197 18.5159 25.6013C18.9539 26.4828 20.2188 28.7091 20.2188 28.7091C20.2188 28.7091 21.528 29.9847 21.5674 29.8547C21.6068 29.7247 22.163 28.12 22.163 28.12C22.163 28.12 20.4157 23.8666 20.1351 22.0344C19.8595 20.2022 19.4215 14.6447 18.9884 14.4497C18.5552 14.2547 16.9704 14.1897 16.178 14.6122Z" fill="#FBDE93"/>
<path d="M25.0127 14.7097C24.4172 15.1647 23.8266 21.1853 23.5854 23.4075C23.3442 25.6297 23.1473 28.9 23.1473 28.9L25.8002 28.7375C25.8002 28.7375 26.7895 20.6612 26.947 19.6131C27.1045 18.565 27.8182 16.1803 27.4638 15.2297C27.1094 14.2872 25.5246 14.3197 25.0127 14.7097Z" fill="#FBDE93"/>
<path d="M7.20048 23.1434C7.03313 23.4562 12.206 46.8197 12.2897 47.169C12.3734 47.5184 12.206 47.8353 13.0083 48.1481C13.8155 48.4609 15.0755 48.6275 15.8827 48.7006C16.6899 48.7697 22.2466 48.7778 22.2909 48.2212C22.3352 47.6606 38.9466 27.6894 38.9466 27.6894C38.9466 27.6894 42.008 23.4522 41.7963 23.1028C41.5847 22.7534 40.7578 22.9159 39.8571 23.4237C38.9564 23.9356 38.1246 25.199 35.5948 26.6006C32.8533 28.12 29.2209 28.4409 25.5689 28.4044C22.2024 28.3678 18.2009 27.864 15.3363 26.1131C12.8163 24.5694 12.0731 23.4562 9.82876 22.9647C7.85016 22.53 7.20048 23.1434 7.20048 23.1434Z" fill="#FD703F"/>
<path d="M11.1134 24.671L15.8088 48.7088C15.8088 48.7088 21.405 49.375 25.7658 49.4441C30.1315 49.5131 35.3339 48.7616 35.3339 48.7616L39.1139 38.2153L42.323 24.3013C42.323 24.3013 41.5305 23.6472 40.6397 24.1875C39.9555 24.6019 37.8441 27.2994 34.1133 28.4897C29.9051 29.8303 22.3205 29.9278 17.5856 28.2785C13.2445 26.7713 11.9205 24.8091 11.1134 24.671Z" fill="#FF2A23"/>
<path d="M38.0557 48.0222C37.1008 48.4934 34.8762 48.8103 34.8762 48.8103C34.8762 48.8103 37.0812 39.9622 38.3067 35.3431C39.5323 30.724 41.2992 22.9119 41.2992 22.9119C41.2992 22.9119 42.008 22.8184 42.7364 22.8915C43.5633 22.9769 44.0555 23.1759 44.2228 23.3912C44.4935 23.7406 42.8644 30.265 41.2697 36.635C39.8128 42.485 38.5626 47.7744 38.0557 48.0222Z" fill="#DC0D25"/>
<defs>
<radialGradient id="paint0_radial_151_8" cx="0" cy="0" r="1" gradientUnits="userSpaceOnUse" gradientTransform="translate(25.7889 -4.19797) scale(40.9146 33.7708)">
<stop offset="0.447" stop-color="#FCC216"/>
<stop offset="0.59" stop-color="#FABB16"/>
<stop offset="0.794" stop-color="#F3A814"/>
<stop offset="0.921" stop-color="#ED9913"/>
</radialGradient>
</defs>
</svg>
