<svg width="96" height="126" viewBox="0 0 96 126" fill="none" xmlns="http://www.w3.org/2000/svg">
<path d="M90.4217 40.3466L90.4202 40.345C90.2828 40.1968 90.1162 40.0786 89.931 39.9977C89.7458 39.9168 89.5458 39.8751 89.3437 39.875C89.3437 39.875 89.3437 39.875 89.3436 39.875H38.1562H38.1548V39.875C37.9522 39.8744 37.7516 39.9158 37.5657 39.9965C37.3798 40.0772 37.2126 40.1954 37.0747 40.3439C36.9367 40.4923 36.831 40.6677 36.7641 40.859C36.6973 41.0502 36.6707 41.2532 36.686 41.4552C36.686 41.4552 36.686 41.4553 36.6861 41.4554L38.6547 66.9945C38.6547 66.9947 38.6547 66.9949 38.6547 66.9951C38.6755 67.2564 38.7658 67.5073 38.9163 67.722C39.067 67.9367 39.2723 68.1072 39.5112 68.2158C39.75 68.3243 40.0135 68.3669 40.2743 68.3391C40.5349 68.3114 40.7833 68.2145 40.9938 68.0584C42.4293 66.9889 44.1806 66.4289 45.9703 66.4669C47.7594 66.5049 49.4846 67.1384 50.8732 68.267M90.4217 40.3466L50.5594 68.6562M90.4217 40.3466C90.5601 40.4946 90.6664 40.6696 90.7339 40.8607C90.8013 41.0516 90.8285 41.2544 90.8139 41.4563L90.814 41.455L91.3125 41.4934M90.4217 40.3466L90.131 39.5395M50.8732 68.267C50.8737 68.2674 50.8743 68.2679 50.8748 68.2683L50.5594 68.6562M50.8732 68.267C50.8728 68.2666 50.8723 68.2663 50.8719 68.2659L50.5594 68.6562M50.8732 68.267C51.1335 68.4749 51.4567 68.5881 51.7898 68.5881C52.1227 68.5881 52.4457 68.475 52.7059 68.2674M50.5594 68.6562C50.9086 68.9358 51.3425 69.0881 51.7898 69.0881C52.2372 69.0881 52.6711 68.9358 53.0203 68.6562M52.7059 68.2674C52.7052 68.268 52.7045 68.2686 52.7038 68.2691L53.0203 68.6562M52.7059 68.2674C54.1344 67.1003 55.9223 66.4628 57.767 66.4628C59.6116 66.4628 61.3995 67.1003 62.8279 68.2674M52.7059 68.2674C52.7066 68.2669 52.7072 68.2664 52.7078 68.2659L53.0203 68.6562M53.0203 68.6562L90.8138 41.4569M90.131 39.5395C89.8827 39.431 89.6147 39.3751 89.3437 39.375H38.1562C37.8846 39.3742 37.6158 39.4297 37.3666 39.5378C37.1174 39.646 36.8934 39.8045 36.7084 40.0035C36.5235 40.2025 36.3818 40.4375 36.2921 40.694C36.2025 40.9504 36.1669 41.2225 36.1875 41.4934L90.131 39.5395ZM90.131 39.5395C90.3793 39.6479 90.6026 39.8063 90.7868 40.005C90.9724 40.2034 91.1149 40.4381 91.2054 40.6942C91.2958 40.9504 91.3323 41.2225 91.3125 41.4934M91.3125 41.4934L90.8138 41.4569M91.3125 41.4934L89.3437 67.034C89.3174 67.3865 89.1965 67.7254 88.994 68.0151C88.7914 68.3048 88.5146 68.5347 88.1926 68.6805C87.8705 68.8263 87.5152 68.8827 87.1638 68.8438C86.8124 68.8049 86.478 68.6721 86.1957 68.4593L90.8138 41.4569M90.8138 41.4569L88.8452 66.9955L88.8451 66.9966C88.8255 67.2596 88.7353 67.5125 88.5842 67.7286C88.4331 67.9447 88.2266 68.1162 87.9863 68.225C87.7461 68.3338 87.481 68.3759 87.2188 68.3468C86.9567 68.3178 86.7072 68.2187 86.4966 68.06L86.4945 68.0584C85.0591 66.9886 83.3077 66.4284 81.5178 66.4664C79.7287 66.5044 78.0035 67.138 76.615 68.2669M76.615 68.2669C76.3548 68.4749 76.0315 68.5881 75.6983 68.5881C75.3654 68.5881 75.0423 68.475 74.7821 68.2673M76.615 68.2669C76.6144 68.2674 76.6139 68.2679 76.6133 68.2684L76.9288 68.6562L76.6163 68.2659C76.6159 68.2663 76.6155 68.2666 76.615 68.2669ZM74.7821 68.2673C73.3537 67.1003 71.5658 66.4628 69.7212 66.4628C67.8766 66.4628 66.0886 67.1003 64.6602 68.2674M74.7821 68.2673C74.7829 68.2679 74.7836 68.2685 74.7844 68.2691L74.4679 68.6562L74.7804 68.2659C74.7809 68.2664 74.7815 68.2668 74.7821 68.2673ZM64.6602 68.2674C64.4 68.475 64.077 68.5881 63.7441 68.5881C63.4112 68.5881 63.0881 68.475 62.8279 68.2674M64.6602 68.2674C64.6608 68.2669 64.6614 68.2664 64.6621 68.2659L64.9746 68.6562L64.6581 68.2691C64.6588 68.2686 64.6595 68.268 64.6602 68.2674ZM62.8279 68.2674C62.8287 68.268 62.8294 68.2685 62.8301 68.2691L62.5136 68.6562L62.8261 68.2659C62.8267 68.2664 62.8273 68.2669 62.8279 68.2674Z" fill="#C73B40" stroke="black"/>
<path d="M90.4202 40.345L90.4217 40.3466C90.5601 40.4946 90.6664 40.6696 90.7339 40.8607C90.8013 41.0515 90.8285 41.2542 90.8139 41.456C90.8139 41.4563 90.8139 41.4566 90.8138 41.4569L88.8453 66.9945C88.8453 66.9947 88.8453 66.9948 88.8453 66.9949C88.8245 67.2563 88.7342 67.5073 88.5837 67.722C88.433 67.9367 88.2277 68.1072 87.9888 68.2158C87.75 68.3243 87.4865 68.3669 87.2257 68.3391C86.9648 68.3114 86.7162 68.2143 86.5056 68.0579L86.504 68.0567C86.2771 67.8897 86.042 67.7344 85.7994 67.5915C85.8523 67.4261 85.8875 67.2551 85.904 67.0813L85.9041 67.0813L85.9048 67.0724L87.8735 41.5318L87.8736 41.5314C87.8994 41.1918 87.8548 40.8504 87.7423 40.5289C87.6603 40.2943 87.5435 40.0739 87.3963 39.875H89.3436C89.3437 39.875 89.3437 39.875 89.3438 39.875C89.5458 39.8751 89.7458 39.9168 89.931 39.9977C90.1162 40.0786 90.2828 40.1968 90.4202 40.345L90.4202 40.345Z" fill="#D26266" stroke="black"/>
<path d="M60.0081 125.5H60.0094H60.2358L60.2372 125.5L60.2417 125.5M60.0081 125.5L62.2045 123.882C62.2252 124.152 62.1895 124.425 62.0999 124.681C62.0102 124.937 61.8685 125.173 61.6836 125.372C61.4987 125.57 61.2746 125.729 61.0254 125.837C60.7781 125.945 60.5113 126 60.2417 126V125.5M60.0081 125.5C59.6362 125.501 59.2778 125.361 59.0052 125.108C58.7326 124.855 58.5661 124.508 58.5393 124.137L55.7181 85.0475L55.7181 85.0474L54.6258 69.954C54.6064 69.5719 54.737 69.1972 54.9897 68.9098C55.2434 68.6212 55.6001 68.4436 55.9832 68.415C56.3664 68.3864 56.7454 68.509 57.0392 68.7566C57.3319 69.0033 57.5166 69.3543 57.5543 69.7351L61.706 123.92M60.0081 125.5L61.706 123.92M60.2417 125.5C60.4428 125.5 60.6418 125.459 60.8263 125.379C61.0122 125.298 61.1794 125.18 61.3173 125.031C61.4553 124.883 61.561 124.707 61.6279 124.516C61.6948 124.325 61.7214 124.122 61.706 123.92M60.2417 125.5L61.706 123.92" fill="black" stroke="black"/>
<path d="M75.711 65.2953L75.45 65.1347C73.7315 64.0769 71.753 63.5168 69.735 63.5168C67.717 63.5168 65.7385 64.0769 64.02 65.1347L63.7579 65.296L63.4958 65.1347C61.7772 64.0769 59.7988 63.5168 57.7807 63.5168C55.7627 63.5168 53.7843 64.0769 52.0657 65.1347L51.8048 65.2953L51.5432 65.1357C49.6725 63.9945 47.5033 63.4385 45.3142 63.5392C43.1252 63.6399 41.0163 64.3925 39.2582 65.7005L75.711 65.2953ZM75.711 65.2953L75.9725 65.1357M75.711 65.2953L75.9725 65.1357M75.9725 65.1357C77.8433 63.9945 80.0125 63.4385 82.2016 63.5392C84.3906 63.6399 86.4996 64.3926 88.2578 65.7006C88.4558 65.8482 88.6134 66.0432 88.716 66.2678C88.8187 66.4924 88.8631 66.7393 88.8451 66.9857L88.845 66.9864L88.6324 69.949L88.6324 69.9493L84.7107 124.137L84.7107 124.137C84.6839 124.508 84.5174 124.855 84.2448 125.108C83.9722 125.361 83.6138 125.501 83.2419 125.5H83.2406L44.5074 125.5L44.506 125.5C44.135 125.501 43.7774 125.362 43.505 125.11C43.2325 124.858 43.0654 124.513 43.0372 124.143L43.0372 124.143M75.9725 65.1357L43.0372 124.143M43.0372 124.143L38.6707 66.9857C38.6706 66.9854 38.6706 66.9852 38.6706 66.9849C38.6527 66.7388 38.6971 66.4922 38.7997 66.2678C38.9024 66.0432 39.06 65.8482 39.258 65.7006L43.0372 124.143Z" fill="#FFFF97" stroke="black"/>
<path d="M71.7735 65.2953L71.5125 65.1347C69.794 64.0769 67.8155 63.5168 65.7975 63.5168C63.7795 63.5168 61.801 64.0769 60.0825 65.1347L59.8204 65.296L59.5583 65.1347C57.8397 64.0769 55.8613 63.5168 53.8432 63.5168C51.8252 63.5168 49.8468 64.0769 48.1282 65.1347L47.8673 65.2953L47.6057 65.1357C45.735 63.9945 43.5658 63.4385 41.3767 63.5392C39.1877 63.6399 37.0788 64.3925 35.3207 65.7005L71.7735 65.2953ZM71.7735 65.2953L72.035 65.1357M71.7735 65.2953L72.035 65.1357M72.035 65.1357C73.9058 63.9945 76.075 63.4385 78.2641 63.5392C80.4531 63.6399 82.5621 64.3926 84.3203 65.7006C84.5183 65.8482 84.6759 66.0432 84.7785 66.2678C84.8812 66.4924 84.9256 66.7393 84.9076 66.9857L84.9075 66.9864L84.6949 69.949L84.6949 69.9493L80.7732 124.137L80.7732 124.137C80.7464 124.508 80.5799 124.855 80.3073 125.108C80.0347 125.361 79.6763 125.501 79.3044 125.5H79.3031L40.5699 125.5L40.5685 125.5C40.1975 125.501 39.8399 125.362 39.5675 125.11C39.295 124.858 39.1279 124.513 39.0997 124.143L39.0997 124.143M72.035 65.1357L39.0997 124.143M39.0997 124.143L34.7332 66.9857C34.7331 66.9854 34.7331 66.9852 34.7331 66.9849C34.7152 66.7388 34.7596 66.4922 34.8622 66.2678C34.9649 66.0432 35.1225 65.8482 35.3205 65.7006L39.0997 124.143Z" fill="#FFFF97" stroke="black"/>
<path d="M80.7978 126H83.2406C83.7391 126.001 84.2195 125.813 84.5849 125.474C84.9503 125.135 85.1735 124.67 85.2094 124.173L80.7978 126ZM80.7978 126C80.8634 125.95 80.9267 125.897 80.9875 125.841C81.1003 125.736 81.2022 125.622 81.2926 125.5M80.7978 126L81.2719 124.173C81.236 124.67 81.0128 125.135 80.6474 125.474C80.6381 125.483 80.6287 125.492 80.6192 125.5H80.6712H81.2926M81.2926 125.5H83.2406H83.2419C83.6138 125.501 83.9722 125.361 84.2448 125.108C84.5174 124.855 84.6839 124.508 84.7107 124.137L84.7107 124.137L88.6324 69.9493L89.1311 69.9851L88.6324 69.949L88.845 66.9864L88.8451 66.9856C88.8631 66.7393 88.8187 66.4924 88.716 66.2678C88.6135 66.0435 88.4562 65.8487 88.2586 65.7012C87.0647 64.822 85.7057 64.1929 84.2628 63.8516C83.7445 63.7289 83.2192 63.6444 82.6911 63.598C83.4745 63.949 84.2206 64.384 84.9157 64.8973L84.9174 64.8985L84.9174 64.8985C85.2504 65.1465 85.5154 65.4744 85.688 65.852C85.8606 66.2295 85.9352 66.6443 85.9049 67.0583C85.9049 67.0584 85.9049 67.0585 85.9049 67.0587L85.6903 70.0212L85.6903 70.0212L81.7706 124.209C81.7706 124.209 81.7706 124.209 81.7706 124.209C81.7366 124.679 81.5692 125.126 81.2926 125.5Z" fill="#FFFFAC" stroke="black"/>
<path d="M10.5938 104.844H53.9062C55.3401 104.844 56.7152 105.413 57.729 106.427C58.7429 107.441 59.3125 108.816 59.3125 110.25C59.3125 111.684 58.7429 113.059 57.729 114.073C56.7152 115.087 55.3401 115.656 53.9062 115.656H10.5938C9.15992 115.656 7.78482 115.087 6.77095 114.073C5.75708 113.059 5.1875 111.684 5.1875 110.25C5.1875 108.816 5.75708 107.441 6.77095 106.427C7.78482 105.413 9.15992 104.844 10.5938 104.844Z" fill="#603813" stroke="black"/>
<path d="M54.4986 105.72C54.1648 105.386 53.798 105.093 53.4057 104.844H53.9062C55.3401 104.844 56.7152 105.413 57.729 106.427C58.7429 107.441 59.3125 108.816 59.3125 110.25C59.3125 111.684 58.7429 113.059 57.729 114.073C56.7152 115.087 55.3401 115.656 53.9062 115.656H53.4057C53.798 115.407 54.1648 115.114 54.4986 114.78C55.7001 113.578 56.375 111.949 56.375 110.25C56.375 108.551 55.7001 106.922 54.4986 105.72Z" fill="#806042" stroke="black"/>
<path d="M7.64062 112.719H56.8594C58.5543 112.719 60.1798 113.392 61.3782 114.591C62.5767 115.789 63.25 117.414 63.25 119.109C63.25 120.804 62.5767 122.43 61.3782 123.628C60.1798 124.827 58.5543 125.5 56.8594 125.5H7.64062C5.94573 125.5 4.32025 124.827 3.12177 123.628C1.9233 122.43 1.25 120.804 1.25 119.109C1.25 117.414 1.9233 115.789 3.12177 114.591C4.32025 113.392 5.94573 112.719 7.64062 112.719Z" fill="#F4A13C" stroke="black"/>
<path d="M58.1478 113.883C57.6918 113.427 57.1824 113.037 56.6342 112.719H56.8594C58.5543 112.719 60.1798 113.392 61.3782 114.591C62.5767 115.789 63.25 117.414 63.25 119.109C63.25 120.804 62.5767 122.43 61.3782 123.628C60.1798 124.827 58.5543 125.5 56.8594 125.5H56.6342C57.1824 125.182 57.6918 124.791 58.1478 124.335C59.5338 122.949 60.3125 121.069 60.3125 119.109C60.3125 117.149 59.5338 115.269 58.1478 113.883Z" fill="#F6B463" stroke="black"/>
<path d="M37.6947 107.928L37.5483 107.781H37.3412H9.60938C8.43662 107.781 7.3119 107.315 6.48264 106.486C5.65338 105.657 5.1875 104.532 5.1875 103.359C5.1875 102.187 5.65338 101.062 6.48264 100.233C7.3119 99.4034 8.43662 98.9375 9.60938 98.9375H54.8906C56.0634 98.9375 57.1881 99.4034 58.0174 100.233C58.8466 101.062 59.3125 102.187 59.3125 103.359C59.3125 104.532 58.8466 105.657 58.0174 106.486C57.1881 107.315 56.0634 107.781 54.8906 107.781H46.8463H46.6392L46.4928 107.928L43.1322 111.288C43.1321 111.288 43.1321 111.288 43.1321 111.288C42.8567 111.564 42.4832 111.718 42.0938 111.718C41.7043 111.718 41.3308 111.564 41.0554 111.288C41.0554 111.288 41.0554 111.288 41.0553 111.288L37.6947 107.928Z" fill="#FCCB7E" stroke="black"/>
<path d="M54.787 99.5255C54.5703 99.3089 54.3372 99.1125 54.0906 98.9375H54.8906C56.0634 98.9375 57.1881 99.4034 58.0174 100.233C58.8466 101.062 59.3125 102.187 59.3125 103.359C59.3125 104.532 58.8466 105.657 58.0174 106.486C57.1881 107.315 56.0634 107.781 54.8906 107.781H54.0906C54.3372 107.606 54.5703 107.41 54.787 107.193C55.8038 106.176 56.375 104.797 56.375 103.359C56.375 101.921 55.8038 100.542 54.787 99.5255Z" fill="#FDD598" stroke="black"/>
<path d="M10.8162 90.6136H53.6838C55.1771 90.6136 56.6093 91.2069 57.6653 92.2628C58.7212 93.3188 59.3145 94.751 59.3145 96.2443C59.3145 97.7377 58.7212 99.1698 57.6653 100.226C56.6093 101.282 55.1771 101.875 53.6838 101.875H10.8162C9.32287 101.875 7.89068 101.282 6.83472 100.226C5.77876 99.1698 5.18553 97.7377 5.18553 96.2443C5.18553 94.751 5.77876 93.3188 6.83472 92.2628C7.89068 91.2069 9.32287 90.6136 10.8162 90.6136Z" fill="#AA7B50" stroke="black"/>
<path d="M54.4349 91.5557C54.0736 91.1944 53.6749 90.8791 53.2479 90.6136H53.6838C55.1771 90.6136 56.6093 91.2069 57.6653 92.2628C58.7212 93.3188 59.3145 94.751 59.3145 96.2443C59.3145 97.7377 58.7212 99.1698 57.6653 100.226C56.6093 101.282 55.1771 101.875 53.6838 101.875H53.2479C53.6749 101.609 54.0736 101.294 54.4349 100.933C55.6784 99.6894 56.377 98.0029 56.377 96.2443C56.377 94.4857 55.6784 92.7992 54.4349 91.5557Z" fill="#BB9573" stroke="black"/>
<path d="M58.7934 87.9147L58.7973 87.9384L58.8035 87.9616C59.0796 89.0063 59.2505 90.076 59.3133 91.1547L59.3138 91.1617L59.3144 91.1688C59.365 91.7517 59.2996 92.3389 59.1221 92.8965C58.9446 93.454 58.6585 93.9709 58.2802 94.4173C57.9019 94.8637 57.439 95.2307 56.9181 95.4973C56.4035 95.7606 55.8426 95.9206 55.2667 95.9685C54.4545 95.958 53.67 95.6701 53.0436 95.1522L52.7325 94.895L52.4155 95.1449C51.7744 95.6502 50.9819 95.925 50.1656 95.925C49.3493 95.925 48.5568 95.6502 47.9158 95.1449L47.6063 94.9009L47.2967 95.1449C46.6557 95.6502 45.8632 95.925 45.0469 95.925C44.2306 95.925 43.4381 95.6502 42.797 95.1449L42.4875 94.9009L42.178 95.1449C41.5369 95.6502 40.7444 95.925 39.9281 95.925C39.1118 95.925 38.3193 95.6502 37.6783 95.1449L37.3688 94.9009L37.0592 95.1449C36.4182 95.6502 35.6257 95.925 34.8094 95.925C33.9931 95.925 33.2006 95.6502 32.5595 95.1449L32.25 94.9009L31.9405 95.1449C31.2994 95.6502 30.5069 95.925 29.6906 95.925C28.8743 95.925 28.0818 95.6502 27.4408 95.1449L27.1313 94.9009L26.8217 95.1449C26.1807 95.6502 25.3882 95.925 24.5719 95.925C23.7556 95.925 22.9631 95.6502 22.322 95.1449L22.0125 94.9009L21.703 95.1449C21.0619 95.6502 20.2694 95.925 19.4531 95.925C18.6368 95.925 17.8443 95.6502 17.2033 95.1449L16.8938 94.9009L16.5842 95.1449C15.9432 95.6502 15.1507 95.925 14.3344 95.925C13.5181 95.925 12.7256 95.6502 12.0845 95.1449L11.7675 94.895L11.4564 95.1522C10.83 95.6701 10.0455 95.958 9.23329 95.9685C8.65744 95.9206 8.09645 95.7606 7.58193 95.4973C7.06105 95.2307 6.5981 94.8637 6.2198 94.4173L5.84651 94.7336L6.2198 94.4173C5.84151 93.9709 5.55535 93.454 5.37785 92.8965C5.20035 92.3389 5.13502 91.7517 5.18563 91.1688L5.18624 91.1617L5.18666 91.1546C5.2493 90.0772 5.41948 89.0088 5.69466 87.9652L5.70076 87.9421L5.70462 87.9185C5.82661 87.1732 6.20057 86.4923 6.76407 85.9894C7.32466 85.4892 8.03909 85.1954 8.78916 85.1562H55.711C56.4604 85.1949 57.1743 85.4882 57.7345 85.9878C58.2976 86.4899 58.6714 87.1701 58.7934 87.9147Z" fill="#8CC63F" stroke="black"/>
<path d="M58.7934 87.9147L58.7973 87.9384L58.8035 87.9616C59.0796 89.0063 59.2505 90.076 59.3133 91.1547L59.3138 91.1617L59.3144 91.1688C59.365 91.7517 59.2996 92.3389 59.1221 92.8965C58.9446 93.454 58.6585 93.9709 58.2802 94.4173C57.9019 94.8637 57.439 95.2307 56.9181 95.4973C56.4033 95.7607 55.842 95.9208 55.2659 95.9686C54.942 95.9655 54.6215 95.9171 54.3135 95.8257C54.8725 95.3472 55.3393 94.7667 55.6874 94.1123C56.1787 93.1887 56.4158 92.1512 56.3746 91.1059L56.3747 91.1058L56.3741 91.0965C56.3078 89.9589 56.1285 88.8307 55.8387 87.7287C55.6756 86.7677 55.1904 85.8905 54.4625 85.2414C54.4301 85.2125 54.3973 85.1841 54.364 85.1562H55.711C56.4604 85.1949 57.1743 85.4882 57.7345 85.9878C58.2976 86.4899 58.6714 87.1701 58.7934 87.9147Z" fill="#A3D165" stroke="black"/>
<path d="M8.625 79.25H55.875C57.7735 79.25 59.3125 80.789 59.3125 82.6875V84.6562C59.3125 86.5547 57.7735 88.0938 55.875 88.0938H8.625C6.72652 88.0938 5.1875 86.5547 5.1875 84.6562V82.6875C5.1875 80.789 6.72652 79.25 8.625 79.25Z" fill="#FF0000" stroke="black"/>
<path d="M55.0753 79.5497C54.9694 79.4438 54.8587 79.3439 54.7438 79.25H55.875C56.7867 79.25 57.661 79.6122 58.3057 80.2568C58.9503 80.9015 59.3125 81.7758 59.3125 82.6875V84.6562C59.3125 85.5679 58.9503 86.4423 58.3057 87.0869C57.661 87.7316 56.7867 88.0938 55.875 88.0938H54.7438C54.8587 87.9999 54.9694 87.8999 55.0753 87.794C55.9075 86.9618 56.375 85.8331 56.375 84.6562V82.6875C56.375 81.5106 55.9075 80.3819 55.0753 79.5497Z" fill="#FF7777" stroke="black"/>
<path d="M59.0507 69.1378L59.0575 69.1408L59.0645 69.1436C60.2878 69.6368 61.338 70.4808 62.0828 71.5694C62.827 72.6573 63.2331 73.9408 63.25 75.2586V75.4593C63.1841 77.2973 62.3955 79.0351 61.0555 80.295C59.7134 81.557 57.9269 82.2373 56.0853 82.1877L56.0853 82.1875H56.0719H8.42812V82.1873L8.41467 82.1877C6.57313 82.2373 4.78665 81.557 3.44454 80.295C2.1045 79.0351 1.31594 77.2972 1.25 75.4593V75.2586C1.26704 73.941 1.67295 72.6578 2.4168 71.57C3.16122 70.4814 4.21088 69.6372 5.4338 69.1435L5.44062 69.1407L5.44736 69.1378C13.8972 65.4339 23.023 63.5217 32.249 63.5217C41.475 63.5217 50.6008 65.4339 59.0507 69.1378Z" fill="#F4A13C" stroke="black"/>
<path d="M59.0531 69.1388L59.053 69.139L59.0645 69.1436C60.2878 69.6368 61.338 70.4808 62.0828 71.5694C62.827 72.6573 63.2331 73.9408 63.25 75.2586V75.4593C63.1841 77.2973 62.3955 79.0351 61.0555 80.295C59.7423 81.5297 58.0038 82.2076 56.2045 82.1899C56.779 81.8715 57.3165 81.481 57.803 81.0236C59.3373 79.5809 60.2393 77.5902 60.3122 75.4854L60.3125 75.4768V75.4681V75.2555H60.3125L60.3125 75.2493C60.2937 73.7331 59.8268 72.2563 58.9706 71.0048C58.1155 69.7549 56.9103 68.7855 55.5062 68.2183C52.832 67.0696 50.094 66.091 47.3087 65.2859C51.3207 66.2091 55.2522 67.4967 59.0531 69.1388Z" fill="#F6B463" stroke="black"/>
<path d="M59.8125 0.5H67.6875C68.4987 0.5 69.1562 1.15758 69.1562 1.96875V33.4688C69.1562 34.2799 68.4987 34.9375 67.6875 34.9375H59.8125C59.0013 34.9375 58.3438 34.2799 58.3438 33.4688V1.96875C58.3438 1.15758 59.0013 0.5 59.8125 0.5Z" fill="#E6E6E6" stroke="black"/>
<path d="M34.2188 32H93.2812C94.0924 32 94.75 32.6576 94.75 33.4688V41.3438C94.75 42.1549 94.0924 42.8125 93.2812 42.8125H34.2188C33.4076 42.8125 32.75 42.1549 32.75 41.3438V33.4688C32.75 32.6576 33.4076 32 34.2188 32Z" fill="#FFFF97" stroke="black"/>
<path d="M91.8125 33.4688C91.8125 32.9368 91.6408 32.4225 91.3281 32H93.2812C93.6708 32 94.0444 32.1547 94.3198 32.4302C94.5953 32.7056 94.75 33.0792 94.75 33.4688V41.3438C94.75 41.7333 94.5953 42.1069 94.3198 42.3823C94.0444 42.6578 93.6708 42.8125 93.2812 42.8125H91.3281C91.6408 42.39 91.8125 41.8757 91.8125 41.3438V33.4688Z" fill="#FFFFAC" stroke="black"/>
</svg>
