<svg width="50" height="50" viewBox="0 0 50 50" fill="none" xmlns="http://www.w3.org/2000/svg">
<g clip-path="url(#clip0_122_165)">
<path d="M25 13.7224C24.4166 13.7224 23.9436 13.2495 23.9436 12.666C23.9436 5.87052 29.4721 0.342102 36.2676 0.342102C36.851 0.342102 37.3239 0.814954 37.3239 1.39845C37.3239 1.98185 36.851 2.4548 36.2676 2.4548C30.637 2.4548 26.0563 7.03546 26.0563 12.666C26.0563 13.2494 25.5834 13.7224 25 13.7224Z" fill="#B29A7E"/>
<path d="M33.4507 10.5736C30.3326 10.5736 27.4304 11.4955 25 13.0804C22.5695 11.4954 19.6672 10.5736 16.5493 10.5736C7.99287 10.5736 1.05635 17.51 1.05635 26.0666C1.05635 37.3342 6.69014 48.6019 16.5493 48.6019C19.6672 48.6019 22.5696 47.68 25 46.0951C27.4305 47.6801 30.3327 48.6019 33.4507 48.6019C43.3099 48.6019 48.9437 37.3343 48.9437 26.0666C48.9437 17.5101 42.0072 10.5736 33.4507 10.5736Z" fill="#E07188"/>
<path d="M33.4507 10.5736C31.9873 10.5736 30.5724 10.779 29.2304 11.1584C35.7305 12.9994 40.4929 18.9767 40.4929 26.0666C40.4929 35.7227 36.3549 45.3778 28.9662 47.9424C30.3857 48.3711 31.8911 48.6019 33.4506 48.6019C43.3098 48.6019 48.9436 37.3343 48.9436 26.0666C48.9437 17.5101 42.0072 10.5736 33.4507 10.5736Z" fill="#DC4161"/>
<path d="M14.8592 1.55948C14.8592 7.16006 19.3993 11.7003 25 11.7003C25 6.09981 20.4598 1.55948 14.8592 1.55948Z" fill="#95D5A7"/>
<path d="M21.2621 10.986C22.4191 11.4452 23.6794 11.7004 25 11.7004C25 6.0998 20.4598 1.55957 14.8592 1.55957C14.8592 1.8 14.8706 2.0377 14.8871 2.27393C18.4264 3.67871 20.9854 7.0167 21.2621 10.986Z" fill="#80CB93"/>
<path d="M33.4507 9.51727C30.9044 9.51727 28.4195 10.0988 26.1621 11.2083C26.8719 6.266 31.1321 2.45468 36.2676 2.45468C36.851 2.45468 37.3239 1.98173 37.3239 1.39833C37.3239 0.814832 36.851 0.34198 36.2676 0.34198C31.32 0.34198 27.0446 3.27313 25.0851 7.48973C23.3688 3.70624 19.5586 1.06659 15.1408 1.06659C14.5574 1.06659 14.0845 1.53944 14.0845 2.12294C14.0845 4.97704 15.1869 7.57772 16.9866 9.5246C16.841 9.52079 16.6953 9.51727 16.5493 9.51727C7.42393 9.51727 0 16.9412 0 26.0665C0 31.9876 1.53438 37.8386 4.20986 42.1193C7.24814 46.9808 11.6306 49.6581 16.5493 49.6581C19.5404 49.6581 22.4478 48.8584 25 47.3395C27.5522 48.8584 30.4596 49.6581 33.4507 49.6581C38.3694 49.6581 42.7519 46.9807 45.7901 42.1193C48.4655 37.8387 50 31.9877 50 26.0665C50 16.9412 42.5761 9.51727 33.4507 9.51727ZM23.8717 10.8539C19.9181 10.3459 16.7771 7.20487 16.269 3.25126C20.2227 3.75917 23.3637 6.90018 23.8717 10.8539ZM33.4507 47.5454C30.6424 47.5454 27.9197 46.738 25.5771 45.2101C25.4017 45.0959 25.2009 45.0386 25 45.0386C24.7991 45.0386 24.5983 45.0958 24.4229 45.2101C22.0802 46.7379 19.3574 47.5454 16.5493 47.5454C7.17246 47.5454 2.1127 36.4791 2.1127 26.0665C2.1127 18.106 8.58887 11.6299 16.5493 11.6299C19.3575 11.6299 22.0803 12.4373 24.4229 13.9651C24.7736 14.1937 25.2262 14.1937 25.5769 13.9651C27.9196 12.4374 30.6424 11.6299 33.4505 11.6299C41.4109 11.6299 47.8871 18.106 47.8871 26.0665C47.8873 36.4791 42.8276 47.5454 33.4507 47.5454Z" fill="#2E2D31"/>
</g>
<defs>
<clipPath id="clip0_122_165">
<rect width="50" height="50" fill="white"/>
</clipPath>
</defs>
</svg>
