<svg width="21" height="21" viewBox="0 0 21 21" fill="none" xmlns="http://www.w3.org/2000/svg">
<path opacity="0.15" d="M1 8.82353L10.5 1L20 8.82353V20H14.0625V15.5294C14.0625 14.6402 13.6871 13.7873 13.019 13.1585C12.351 12.5298 11.4449 12.1765 10.5 12.1765C9.55523 12.1765 8.64904 12.5298 7.98093 13.1585C7.31283 13.7873 6.9375 14.6401 6.9375 15.5294V20H1V8.82353Z" fill="black"/>
<path d="M1 8.82353L10.5 1L20 8.82353V20H14.0625V15.5294C14.0625 14.6402 13.6871 13.7873 13.019 13.1585C12.351 12.5298 11.4448 12.1765 10.5 12.1765C9.55511 12.1765 8.64905 12.5298 7.98094 13.1585C7.31284 13.7873 6.93751 14.6401 6.93751 15.5294V20H1.00001L1 8.82353Z" stroke="black" stroke-linecap="round" stroke-linejoin="round"/>
</svg>
