<svg width="24" height="24" viewBox="0 0 24 24" fill="none" xmlns="http://www.w3.org/2000/svg">
<path fill-rule="evenodd" clip-rule="evenodd" d="M16.7143 1H7.28571C3.81421 1 1 3.81421 1 7.28571V16.7143C1 20.1857 3.81421 23 7.28571 23H16.7143C20.1857 23 23 20.1857 23 16.7143V7.28571C23 3.81421 20.1857 1 16.7143 1Z" stroke="black" stroke-width="2" stroke-linecap="round" stroke-linejoin="round"/>
<path fill-rule="evenodd" clip-rule="evenodd" d="M12 16.7147C9.39629 16.7147 7.28571 14.6041 7.28571 12.0004C7.28571 9.39672 9.39629 7.28613 12 7.28613C14.6037 7.28613 16.7143 9.39672 16.7143 12.0004C16.7143 13.2506 16.2175 14.4498 15.3335 15.3339C14.4494 16.218 13.2502 16.7147 12 16.7147Z" stroke="black" stroke-width="2" stroke-linecap="round" stroke-linejoin="round"/>
<path d="M18.2857 4.14328C17.4178 4.14328 16.7143 4.84683 16.7143 5.7147C16.7143 6.58258 17.4178 7.28613 18.2857 7.28613C19.1536 7.28613 19.8572 6.58258 19.8572 5.7147C19.8572 4.84683 19.1536 4.14328 18.2857 4.14328Z" fill="black"/>
<path d="M18.2857 4.92857C17.8518 4.92857 17.5 5.28035 17.5 5.71429C17.5 6.14822 17.8518 6.5 18.2857 6.5C18.7197 6.5 19.0714 6.14822 19.0714 5.71429C19.0714 5.28035 18.7197 4.92857 18.2857 4.92857Z" stroke="black" stroke-width="2" stroke-linecap="round"/>
</svg>
