<svg width="18" height="24" viewBox="0 0 18 24" fill="none" xmlns="http://www.w3.org/2000/svg">
<path d="M9 1C7.94848 1.00043 6.90742 1.19893 5.93662 1.5841C4.96582 1.96928 4.08443 2.53353 3.34308 3.24444C1.84154 4.68431 0.999115 6.6324 1 8.66275C1 11.0968 1.66092 12.8675 4.20169 15.8345C5.38202 17.1137 6.4162 18.509 7.28677 19.9969C8.208 21.7857 8.09938 23 9 23C9.90062 23 9.792 21.7857 10.7132 19.9969C11.5838 18.509 12.618 17.1137 13.7983 15.8345C16.3391 12.8675 17 11.0967 17 8.66275C17.0009 6.6324 16.1584 4.68433 14.6569 3.24444C13.9156 2.53353 13.0342 1.96928 12.0634 1.5841C11.0926 1.19893 10.0515 1.00043 9 1Z" stroke="black" stroke-width="2"/>
<path d="M9.00001 11.5603C10.6993 11.5603 12.0769 10.247 12.0769 8.62694C12.0769 7.0069 10.6993 5.6936 9.00001 5.6936C7.30067 5.6936 5.92309 7.0069 5.92309 8.62694C5.92309 10.247 7.30067 11.5603 9.00001 11.5603Z" stroke="black" stroke-width="2"/>
</svg>
