<svg width="24" height="20" viewBox="0 0 24 20" fill="none" xmlns="http://www.w3.org/2000/svg">
<path d="M20.8667 14.7381H4.0136C2.5112 14.7381 1.2932 15.9618 1.2932 17.4714V19.0629H23.5871V17.4714C23.5871 15.9618 22.3688 14.7381 20.8667 14.7381Z" fill="#FF0000"/>
<path d="M9.1862 14.7381H4.0136C2.5112 14.7381 1.2932 15.9618 1.2932 17.4714V19.0629H6.4658V17.4714C6.4658 15.9618 7.6838 14.7381 9.1862 14.7381Z" fill="#B80009"/>
<path d="M21.5558 14.7381C21.5558 9.67949 17.4746 5.57849 12.44 5.57849C7.4057 5.57849 3.3245 9.67919 3.3245 14.7381" fill="#FF0000"/>
<path d="M13.9496 5.7045C13.4507 5.62089 12.9458 5.57885 12.44 5.5788C7.4057 5.5788 3.3245 9.6795 3.3245 14.7384H6.3434C6.3434 10.1961 9.6335 6.4272 13.9496 5.7045Z" fill="#B80009"/>
<path d="M10.7939 2.57069C10.7939 2.78787 10.8364 3.00292 10.9191 3.20356C11.0019 3.40421 11.1231 3.58653 11.276 3.7401C11.4288 3.89367 11.6103 4.0155 11.81 4.09861C12.0097 4.18172 12.2238 4.2245 12.44 4.2245C12.6562 4.2245 12.8703 4.18172 13.07 4.09861C13.2697 4.0155 13.4512 3.89367 13.604 3.7401C13.7569 3.58653 13.8781 3.40421 13.9609 3.20356C14.0436 3.00292 14.0861 2.78787 14.0861 2.57069C14.0861 2.35352 14.0436 2.13847 13.9609 1.93782C13.8781 1.73718 13.7569 1.55486 13.604 1.40129C13.4512 1.24771 13.2697 1.12589 13.07 1.04278C12.8703 0.959664 12.6562 0.916885 12.44 0.916885C12.2238 0.916885 12.0097 0.959664 11.81 1.04278C11.6103 1.12589 11.4288 1.24771 11.276 1.40129C11.1231 1.55486 11.0019 1.73718 10.9191 1.93782C10.8364 2.13847 10.7939 2.35352 10.7939 2.57069Z" fill="#FF0000"/>
<path d="M12.0872 2.57099C12.0868 2.24752 12.1812 1.93103 12.3588 1.66069C12.5364 1.39034 12.7894 1.17802 13.0865 1.04999C12.8823 0.962209 12.6623 0.917085 12.44 0.91739C11.531 0.91739 10.7942 1.65779 10.7942 2.57129C10.7942 3.48449 11.5313 4.22489 12.44 4.22489C12.6695 4.22489 12.8879 4.17749 13.0865 4.09229C12.7895 3.96412 12.5365 3.75171 12.3589 3.48134C12.1813 3.21097 12.0869 2.89448 12.0872 2.57099Z" fill="#B80009"/>
<path d="M19.6664 12.5187C19.5131 12.5187 19.37 12.4233 19.3151 12.27C18.4706 9.9015 16.4291 8.1003 13.9877 7.5687C13.7861 7.5249 13.6583 7.3251 13.7021 7.1229C13.7459 6.9207 13.9445 6.792 14.1458 6.8358C15.4869 7.1302 16.7302 7.76322 17.7572 8.6745C18.7796 9.58103 19.5571 10.7306 20.0177 12.0171C20.0378 12.0736 20.0441 12.134 20.0361 12.1934C20.028 12.2528 20.0059 12.3095 19.9715 12.3586C19.9371 12.4077 19.8915 12.4478 19.8384 12.4757C19.7853 12.5035 19.7263 12.5183 19.6664 12.5187ZM21.9104 16.6563C21.8526 16.6563 21.7957 16.6428 21.744 16.617C21.6924 16.5912 21.6474 16.5537 21.6128 16.5075C21.5393 16.4097 21.3617 16.3422 21.3056 16.3287C21.2107 16.3039 21.1292 16.2429 21.0787 16.1588C21.0283 16.0747 21.0128 15.9741 21.0356 15.8787C21.0584 15.7833 21.1177 15.7006 21.2007 15.6484C21.2838 15.5961 21.384 15.5786 21.4799 15.5994C21.5279 15.6111 21.9578 15.7224 22.208 16.0551C22.2498 16.1107 22.2753 16.1768 22.2817 16.2461C22.2881 16.3153 22.2752 16.385 22.2443 16.4473C22.2135 16.5097 22.1659 16.5622 22.1069 16.5991C22.048 16.636 21.9799 16.6558 21.9104 16.6563Z" fill="white"/>
<path d="M21.9266 14.5512C21.8294 9.50489 17.8112 5.40719 12.8129 5.21189V4.56419C13.2762 4.47517 13.694 4.22745 13.9944 3.86366C14.2947 3.49988 14.4589 3.04277 14.4587 2.57099C14.4588 2.22832 14.3725 1.89114 14.2079 1.59059C14.1843 1.54758 14.1525 1.50965 14.1142 1.47898C14.076 1.44831 14.032 1.42551 13.9849 1.41188C13.9378 1.39824 13.8884 1.39406 13.8397 1.39955C13.791 1.40504 13.7438 1.42011 13.7009 1.44389C13.6143 1.49235 13.5503 1.5731 13.523 1.66854C13.4957 1.76397 13.5072 1.86634 13.5551 1.95329C13.6586 2.14109 13.7129 2.35439 13.7129 2.57099C13.7129 3.27629 13.142 3.84989 12.44 3.84989C11.738 3.84989 11.1671 3.27629 11.1671 2.57099C11.1671 1.86569 11.738 1.29209 12.4397 1.29209C12.6134 1.29209 12.7817 1.32659 12.9398 1.39439C12.9849 1.41371 13.0334 1.42393 13.0824 1.42446C13.1315 1.42499 13.1801 1.41581 13.2256 1.39747C13.2711 1.37913 13.3126 1.35197 13.3475 1.31757C13.3825 1.28316 13.4103 1.24219 13.4294 1.19699C13.4685 1.10572 13.4698 1.00266 13.433 0.910429C13.3962 0.818196 13.3244 0.744316 13.2332 0.704993C12.9826 0.597185 12.7125 0.541848 12.4397 0.542393C11.3267 0.542393 10.421 1.45229 10.421 2.57099C10.4209 3.04277 10.5851 3.49986 10.8854 3.86368C11.1858 4.22749 11.6035 4.4753 12.0668 4.56449V5.21189C10.834 5.25726 9.62236 5.546 8.5016 6.06149C8.41149 6.10308 8.34151 6.17867 8.30699 6.27171C8.27247 6.36476 8.27621 6.4677 8.3174 6.55799C8.33755 6.60271 8.36634 6.64301 8.40212 6.67656C8.4379 6.71011 8.47996 6.73625 8.52588 6.75348C8.5718 6.77071 8.62068 6.77869 8.6697 6.77696C8.71871 6.77523 8.76691 6.76382 8.8115 6.74339C9.94942 6.22011 11.1875 5.95058 12.44 5.95349C17.1407 5.95349 20.9864 9.70079 21.1748 14.3787C21.0724 14.3684 20.9696 14.3632 20.8667 14.3631H4.0136C3.9095 14.3631 3.8069 14.3685 3.7055 14.3787C3.7593 12.9803 4.14695 11.6151 4.83606 10.3971C5.52517 9.17906 6.49575 8.14364 7.6667 7.37729C7.74965 7.32271 7.80761 7.2375 7.82791 7.1403C7.8482 7.04309 7.82918 6.94181 7.775 6.85859C7.74835 6.81743 7.71382 6.78194 7.67341 6.75416C7.63299 6.72639 7.58748 6.70688 7.5395 6.69676C7.49151 6.68664 7.442 6.68611 7.39381 6.69519C7.34562 6.70427 7.2997 6.7228 7.2587 6.74969C4.6136 8.48489 3.0149 11.3907 2.9543 14.5512C2.35736 14.7716 1.84233 15.1697 1.4786 15.6919C1.11487 16.214 0.919913 16.8351 0.919998 17.4714V19.0629C0.919998 19.2696 1.0871 19.4376 1.2932 19.4376H23.5871C23.7929 19.4376 23.96 19.2696 23.96 19.0629V17.4714C23.96 16.1313 23.1116 14.9868 21.9266 14.5512ZM1.6661 18.6879V17.4714C1.6661 16.1706 2.7191 15.1128 4.0136 15.1128H20.8664C22.034 15.1128 23.0048 15.9735 23.1842 17.0967H20.249C20.0429 17.0967 19.8761 17.2647 19.8761 17.4714C19.8761 17.6784 20.0432 17.8464 20.249 17.8464H23.2142V18.6879H1.6661Z" fill="black"/>
<path d="M18.9557 17.0967H7.6652C7.4591 17.0967 7.292 17.2647 7.292 17.4714C7.292 17.6784 7.4591 17.8464 7.6652 17.8464H18.9554C19.1615 17.8464 19.3283 17.6784 19.3283 17.4714C19.3285 17.4223 19.3189 17.3737 19.3003 17.3283C19.2817 17.2829 19.2543 17.2416 19.2197 17.2068C19.185 17.172 19.1439 17.1444 19.0986 17.1255C19.0533 17.1066 19.0048 17.0968 18.9557 17.0967ZM6.4658 17.0967H3.2882C3.0821 17.0967 2.915 17.2647 2.915 17.4714C2.915 17.6784 3.0821 17.8464 3.2882 17.8464H6.4655C6.6716 17.8464 6.8387 17.6784 6.8387 17.4714C6.8387 17.2647 6.6719 17.0967 6.4658 17.0967Z" fill="black"/>
</svg>
