<svg width="22" height="21" viewBox="0 0 22 21" fill="none" xmlns="http://www.w3.org/2000/svg">
<path d="M20.3335 17.0056L11.4065 0.672007C11.2484 0.383257 10.7516 0.383257 10.5935 0.672007L7.60833 6.13376C7.66929 6.12982 7.72979 6.12501 7.79166 6.12501C8.52101 6.12501 9.22048 6.40157 9.73621 6.89385C10.2519 7.38614 10.5417 8.05381 10.5417 8.75001C10.5417 9.4462 10.2519 10.1139 9.73621 10.6062C9.22048 11.0984 8.52101 11.375 7.79166 11.375C7.31785 11.3749 6.85213 11.2578 6.43979 11.035C6.02744 10.8122 5.68253 10.4914 5.43858 10.1036L1.6665 17.0052C1.63851 17.0565 1.62144 17.1126 1.61628 17.1703C1.61111 17.2279 1.61795 17.2859 1.6364 17.341C1.65485 17.3962 1.68454 17.4472 1.72377 17.4913C1.763 17.5354 1.81098 17.5717 1.86496 17.598C4.71762 18.9844 7.79121 19.6875 11 19.6875C14.2088 19.6875 17.2824 18.9844 20.135 17.598C20.189 17.5717 20.2369 17.5355 20.2761 17.4914C20.3153 17.4473 20.3449 17.3963 20.3634 17.3412C20.3818 17.2862 20.3887 17.2282 20.3835 17.1706C20.3784 17.113 20.3614 17.0569 20.3335 17.0056Z" fill="#EA9860"/>
<path d="M7.79167 11.375C8.52101 11.375 9.22049 11.0984 9.73621 10.6062C10.2519 10.1139 10.5417 9.44619 10.5417 8.75C10.5417 8.05381 10.2519 7.38613 9.73621 6.89385C9.22049 6.40156 8.52101 6.125 7.79167 6.125C7.72979 6.125 7.66929 6.12981 7.60833 6.13375L5.43858 10.1036C5.68253 10.4914 6.02745 10.8122 6.43979 11.035C6.85213 11.2578 7.31785 11.3749 7.79167 11.375Z" fill="#C94F49"/>
<path d="M10.5417 13.125C10.5417 13.5891 10.7348 14.0342 11.0786 14.3624C11.4224 14.6906 11.8888 14.875 12.375 14.875C12.8612 14.875 13.3275 14.6906 13.6714 14.3624C14.0152 14.0342 14.2083 13.5891 14.2083 13.125C14.2083 12.8952 14.1609 12.6676 14.0688 12.4553C13.9766 12.243 13.8416 12.0501 13.6714 11.8876C13.5011 11.7251 13.299 11.5962 13.0766 11.5082C12.8541 11.4203 12.6157 11.375 12.375 11.375C12.1342 11.375 11.8958 11.4203 11.6734 11.5082C11.451 11.5962 11.2489 11.7251 11.0786 11.8876C10.9084 12.0501 10.7733 12.243 10.6812 12.4553C10.5891 12.6676 10.5417 12.8952 10.5417 13.125Z" fill="#C94F49"/>
<path d="M11 20.5625C7.645 20.5625 4.43208 19.8275 1.44879 18.3776C1.12375 18.2196 0.877759 17.9449 0.764945 17.6138C0.709084 17.4498 0.6876 17.277 0.701718 17.1051C0.715837 16.9333 0.765281 16.7657 0.847229 16.6121C0.929176 16.4585 1.04202 16.3217 1.17932 16.2097C1.31662 16.0977 1.47569 16.0127 1.64744 15.9593C1.99431 15.8516 2.37179 15.8799 2.69683 16.0379C5.28917 17.2987 8.08317 17.9375 11 17.9375C13.9168 17.9375 16.7104 17.2987 19.3032 16.0379C19.4641 15.9597 19.6396 15.9125 19.8197 15.899C19.9997 15.8855 20.1808 15.906 20.3526 15.9593C20.5243 16.0127 20.6834 16.0977 20.8207 16.2097C20.958 16.3217 21.0708 16.4585 21.1528 16.6121C21.2347 16.7657 21.2842 16.9333 21.2983 17.1051C21.3124 17.277 21.2909 17.4498 21.2351 17.6138C21.1792 17.7777 21.0901 17.9296 20.9727 18.0606C20.8554 18.1917 20.7122 18.2994 20.5512 18.3776C17.5679 19.8271 14.3545 20.5625 11 20.5625Z" fill="#DDBE99"/>
</svg>
