<svg width="20" height="19" viewBox="0 0 20 19" fill="none" xmlns="http://www.w3.org/2000/svg">
<path fill-rule="evenodd" clip-rule="evenodd" d="M3.2385 13.4279C2.1661 12.4035 1.43873 11.1072 1.14662 9.69965C0.852096 8.28816 1.00334 6.82702 1.58186 5.49464C2.15545 4.16973 3.1347 3.03291 4.39666 2.22692C6.95709 0.591028 10.3278 0.591028 12.8881 2.22692C14.1502 3.03291 15.1294 4.16973 15.7029 5.49464C16.2815 6.82702 16.4328 8.28816 16.1382 9.69965C15.8462 11.1072 15.1188 12.4035 14.0463 13.4279C12.6261 14.7912 10.6775 15.5602 8.64237 15.5602C6.60741 15.5602 4.65874 14.7912 3.2385 13.4279Z" stroke="black" stroke-width="2" stroke-linecap="round" stroke-linejoin="round"/>
<mask id="path-2-inside-1_122_47" fill="black">
<path d="M8.65105 3.55537C8.14029 3.606 7.77015 4.03439 7.82421 4.5122C7.8784 4.99002 8.33633 5.33631 8.84709 5.28569L8.65105 3.55537ZM10.9468 6.44286C11.147 6.88536 11.6928 7.09219 12.1658 6.90485C12.6388 6.71753 12.8599 6.207 12.6596 5.76453L10.9468 6.44286ZM14.8162 12.7008C14.4528 12.3614 13.8639 12.3618 13.5011 12.702C13.1381 13.0419 13.1387 13.5928 13.5022 13.9322L14.8162 12.7008ZM17.7033 17.8554C18.0669 18.1949 18.6556 18.1944 19.0186 17.8543C19.3814 17.5142 19.3809 16.9634 19.0173 16.6239L17.7033 17.8554ZM8.84709 5.28569C9.74299 5.19688 10.5956 5.66674 10.9468 6.44286L12.6596 5.76453C11.9891 4.28285 10.3615 3.38583 8.65105 3.55537L8.84709 5.28569ZM13.5022 13.9322L17.7033 17.8554L19.0173 16.6239L14.8162 12.7008L13.5022 13.9322Z"/>
</mask>
<path d="M8.65105 3.55537C8.14029 3.606 7.77015 4.03439 7.82421 4.5122C7.8784 4.99002 8.33633 5.33631 8.84709 5.28569L8.65105 3.55537ZM10.9468 6.44286C11.147 6.88536 11.6928 7.09219 12.1658 6.90485C12.6388 6.71753 12.8599 6.207 12.6596 5.76453L10.9468 6.44286ZM14.8162 12.7008C14.4528 12.3614 13.8639 12.3618 13.5011 12.702C13.1381 13.0419 13.1387 13.5928 13.5022 13.9322L14.8162 12.7008ZM17.7033 17.8554C18.0669 18.1949 18.6556 18.1944 19.0186 17.8543C19.3814 17.5142 19.3809 16.9634 19.0173 16.6239L17.7033 17.8554ZM8.84709 5.28569C9.74299 5.19688 10.5956 5.66674 10.9468 6.44286L12.6596 5.76453C11.9891 4.28285 10.3615 3.38583 8.65105 3.55537L8.84709 5.28569ZM13.5022 13.9322L17.7033 17.8554L19.0173 16.6239L14.8162 12.7008L13.5022 13.9322Z" fill="black"/>
<path d="M9.84073 5.17311L9.64469 3.4428L7.6574 3.66795L7.85345 5.39827L9.84073 5.17311ZM12.2914 4.83478L10.5786 5.51312L11.315 7.3726L13.0278 6.69427L12.2914 4.83478ZM14.186 14.6619L15.5 13.4305L14.1324 11.9711L12.8184 13.2026L14.186 14.6619ZM18.3335 15.8943L17.0195 17.1257L18.3871 18.585L19.7011 17.3536L18.3335 15.8943ZM8.65105 3.55537L8.8483 5.54562L8.84833 5.54562L8.65105 3.55537ZM7.82421 4.5122L5.83689 4.73706L5.83695 4.73757L7.82421 4.5122ZM8.84709 5.28569L9.04435 7.27594L9.04438 7.27593L8.84709 5.28569ZM10.9468 6.44286L9.12462 7.26732L9.12469 7.26746L10.9468 6.44286ZM12.1658 6.90485L12.9022 8.76435L12.9023 8.76431L12.1658 6.90485ZM12.6596 5.76453L10.8375 6.58905L10.8375 6.58918L12.6596 5.76453ZM14.8162 12.7008L13.4511 14.1625L13.4512 14.1625L14.8162 12.7008ZM13.5011 12.702L14.8684 14.1616L14.8689 14.1611L13.5011 12.702ZM13.5022 13.9322L12.1371 15.394L12.1372 15.394L13.5022 13.9322ZM17.7033 17.8554L19.0684 16.3937L19.0683 16.3936L17.7033 17.8554ZM19.0186 17.8543L20.3861 19.3137L20.3864 19.3135L19.0186 17.8543ZM19.0173 16.6239L20.3824 15.1622L20.3823 15.1622L19.0173 16.6239ZM8.45379 1.56513C6.9596 1.71322 5.64358 3.02857 5.83689 4.73706L9.81153 4.28734C9.89672 5.04021 9.32098 5.49878 8.8483 5.54562L8.45379 1.56513ZM5.83695 4.73757C6.02768 6.4194 7.56688 7.42237 9.04435 7.27594L8.64983 3.29544C9.10579 3.25025 9.72912 3.56064 9.81147 4.28683L5.83695 4.73757ZM9.12469 7.26746C9.79821 8.75571 11.5134 9.31433 12.9022 8.76435L11.4294 5.04536C11.8721 4.87005 12.4959 5.01501 12.7689 5.61825L9.12469 7.26746ZM12.9023 8.76431C14.3488 8.1914 15.1912 6.50748 14.4817 4.93987L10.8375 6.58918C10.5285 5.90651 10.9287 5.24367 11.4293 5.04539L12.9023 8.76431ZM16.1813 11.2391C15.0485 10.1812 13.2645 10.1823 12.1333 11.2428L14.8689 14.1611C14.4632 14.5413 13.8571 14.5416 13.4511 14.1625L16.1813 11.2391ZM12.1337 11.2423C10.9257 12.374 10.9286 14.2653 12.1371 15.394L14.8672 12.4705C15.3489 12.9203 15.3505 13.7099 14.8684 14.1616L12.1337 11.2423ZM16.3382 19.3171C17.4711 20.3751 19.2547 20.3739 20.3861 19.3137L17.651 16.3949C18.0565 16.015 18.6626 16.0147 19.0684 16.3937L16.3382 19.3171ZM20.3864 19.3135C21.5933 18.1821 21.5913 16.2912 20.3824 15.1622L17.6523 18.0856C17.1704 17.6357 17.1695 16.8463 17.6508 16.3952L20.3864 19.3135ZM9.04438 7.27593C9.08586 7.27182 9.11803 7.2817 9.13589 7.29154C9.15331 7.30114 9.13919 7.29951 9.12462 7.26732L12.7689 5.6184C12.0377 4.00233 10.3334 3.12855 8.6498 3.29544L9.04438 7.27593ZM14.4817 4.94C13.4312 2.61848 10.952 1.31749 8.45377 1.56513L8.84833 5.54562C9.77099 5.45416 10.547 5.94721 10.8375 6.58905L14.4817 4.94ZM12.1372 15.394L16.3383 19.3171L19.0683 16.3936L14.8672 12.4705L12.1372 15.394ZM20.3823 15.1622L16.1812 11.239L13.4512 14.1625L17.6523 18.0857L20.3823 15.1622Z" fill="black" mask="url(#path-2-inside-1_122_47)"/>
</svg>
