<svg width="64" height="44" viewBox="0 0 64 44" fill="none" xmlns="http://www.w3.org/2000/svg">
<path d="M1.02126 9.40424V12.1276C1.02126 13.6394 1.84313 14.9585 3.06376 15.6649V40.7234C3.06376 41.8514 3.97826 42.7659 5.10626 42.7659C6.23426 42.7659 7.14876 41.8514 7.14876 40.7234V15.665C8.36938 14.9585 9.19126 13.6396 9.19126 12.1277V9.40436H1.02126V9.40424Z" fill="#7BFFCD"/>
<path d="M31.9986 1.23535C43.4669 1.23535 52.7646 10.5331 52.7646 22.0014C52.7646 33.4696 43.4669 42.7674 31.9986 42.7674C20.5304 42.7674 11.2326 33.4696 11.2326 22.0014C11.2326 10.5331 20.5304 1.23535 31.9986 1.23535Z" fill="#7BFFCD"/>
<path d="M31.9986 6.68225C40.4589 6.68225 47.3178 13.5411 47.3178 22.0014C47.3178 30.4616 40.4589 37.3205 31.9986 37.3205C38.9543 37.3205 44.5944 30.4616 44.5944 22.0014C44.5944 13.5411 38.9543 6.68225 31.9986 6.68225Z" fill="#CAFFEB"/>
<path d="M31.9986 6.68225C38.9543 6.68225 44.5944 13.5411 44.5944 22.0014C44.5944 30.4616 38.9543 37.3205 31.9986 37.3205C23.5384 37.3205 16.6795 30.4616 16.6795 22.0014C16.6795 13.5411 23.5384 6.68225 31.9986 6.68225Z" fill="white"/>
<path d="M36.2866 14.4302C36.0347 14.4302 35.7869 14.4494 35.5445 14.4875L32 31.1956C32.1416 31.1194 41.1901 26.1491 41.1901 19.3339C41.1901 16.6254 38.9951 14.4302 36.2866 14.4302Z" fill="#FF6288"/>
<path d="M62.9774 24.0425V27.1077L60.9347 29.8311L58.8922 27.1077V19.9587L62.9774 24.0425Z" fill="#5DC09A"/>
<path d="M62.9774 27.1077V40.7247C62.9774 41.8522 62.0623 42.7672 60.9349 42.7672C59.8074 42.7672 58.8924 41.8521 58.8924 40.7247V27.1077H62.9774Z" fill="#6CDFB4"/>
<path d="M35.5445 14.4875C37.2004 14.8484 38.4668 16.88 38.4668 19.3337C38.4668 26.1381 32.1199 31.103 32 31.1955C31.9986 31.1969 22.8071 26.2021 22.8071 19.3337C22.8071 16.6254 25.0023 14.4302 27.7106 14.4302C29.5571 14.4302 31.1625 15.4529 31.9986 16.9602C32.7204 15.6585 34.0154 14.719 35.5445 14.4875Z" fill="#FF849B"/>
<path d="M56.8498 7.7505V24.0425H62.9774V1.52612C59.6071 1.52612 56.8498 4.32712 56.8498 7.7505Z" fill="#7BFFCD"/>
<path d="M32 5.65961C22.9899 5.65961 15.6596 12.99 15.6596 22C15.6596 31.01 22.9899 38.3404 32 38.3404C35.616 38.3404 39.0432 37.1822 41.911 34.9911C42.3592 34.6487 42.445 34.0079 42.1026 33.5596C41.7601 33.1115 41.1192 33.0256 40.6711 33.368C38.1625 35.2847 35.164 36.2979 32.0001 36.2979C24.1162 36.2979 17.7022 29.8839 17.7022 22C17.7022 14.1161 24.1161 7.70211 32 7.70211C39.8839 7.70211 46.2979 14.1161 46.2979 22C46.2979 25.1639 45.2849 28.1622 43.368 30.671C43.0255 31.1192 43.1114 31.7601 43.5596 32.1025C44.0076 32.445 44.6487 32.3591 44.9911 31.9109C47.1822 29.043 48.3404 25.6157 48.3404 21.9999C48.3404 12.9899 41.0101 5.65961 32 5.65961Z" fill="black"/>
<path d="M32 0.212769C19.9865 0.212769 10.2128 9.98652 10.2128 22C10.2128 34.0135 19.9865 43.7873 32 43.7873C44.0136 43.7873 53.7873 34.0135 53.7873 22C53.7873 9.98652 44.0136 0.212769 32 0.212769ZM32 41.7446C21.1128 41.7446 12.2554 32.8871 12.2554 22C12.2554 11.1129 21.1128 2.25539 32 2.25539C42.8873 2.25539 51.7446 11.1128 51.7446 22C51.7446 32.8873 42.8873 41.7446 32 41.7446Z" fill="black"/>
<path d="M36.2879 13.4073C34.648 13.4073 33.1041 14.0883 32 15.2477C30.8959 14.0885 29.352 13.4073 27.7121 13.4073C24.4451 13.4073 21.7872 16.0652 21.7872 19.3322C21.7872 26.7228 31.1154 31.8771 31.5124 32.0928C31.6645 32.1755 31.8322 32.2167 32 32.2167C32.1677 32.2167 32.3356 32.1755 32.4876 32.0928C32.8847 31.877 42.2127 26.7228 42.2127 19.3322C42.2127 16.0652 39.5549 13.4073 36.2879 13.4073ZM31.9994 30.0121C30.1696 28.8987 23.8299 24.6555 23.8299 19.3322C23.8299 17.1915 25.5715 15.4498 27.7122 15.4498C29.1207 15.4498 30.4215 16.2178 31.1069 17.454C31.2869 17.7786 31.6289 17.9801 32.0001 17.9801C32.3714 17.9801 32.7132 17.7787 32.8934 17.454C33.5787 16.2178 34.8794 15.4498 36.2881 15.4498C38.4289 15.4498 40.1705 17.1915 40.1705 19.3322C40.1702 24.6432 33.8281 28.8965 31.9994 30.0121Z" fill="black"/>
<path d="M10.2128 1.23402C10.2128 0.670018 9.7555 0.212769 9.1915 0.212769C8.6275 0.212769 8.17025 0.670018 8.17025 1.23402V8.38289H6.12775V1.23402C6.12775 0.670018 5.6705 0.212769 5.1065 0.212769C4.5425 0.212769 4.08525 0.670018 4.08525 1.23402V8.38289H2.0425V1.23402C2.0425 0.670018 1.58525 0.212769 1.02125 0.212769C0.45725 0.212769 0 0.670018 0 1.23402V12.1276C0 13.7388 0.769625 15.2539 2.0425 16.2114V40.7234C2.0425 42.4129 3.41688 43.7873 5.10638 43.7873C6.79588 43.7873 8.17025 42.4129 8.17025 40.7234V16.2114C9.44312 15.2539 10.2128 13.7388 10.2128 12.1276V1.23402ZM6.6375 14.7809C6.322 14.9635 6.12762 15.3004 6.12762 15.6649V40.7234C6.12762 41.2866 5.6695 41.7446 5.10638 41.7446C4.54325 41.7446 4.08512 41.2865 4.08512 40.7234V15.665C4.08512 15.3005 3.89075 14.9636 3.57525 14.7811C2.62987 14.2339 2.0425 13.2173 2.0425 12.1278V10.4256H8.17013V12.1278C8.17025 13.2171 7.58287 14.2338 6.6375 14.7809Z" fill="black"/>
<path d="M62.9788 0.212769C59.0369 0.212769 55.8299 3.46339 55.8299 7.45889V24.0425C55.8299 24.6065 56.287 25.0638 56.8511 25.0638H61.9575V40.7234C61.9575 41.2866 61.4994 41.7446 60.9363 41.7446C60.3731 41.7446 59.915 41.2865 59.915 40.7234V28.1276C59.915 27.5636 59.4579 27.1064 58.8938 27.1064C58.3296 27.1064 57.8725 27.5636 57.8725 28.1276V40.7234C57.8725 42.4129 59.247 43.7873 60.9364 43.7873C62.6258 43.7873 64 42.4129 64 40.7234V1.23402C64 0.670018 63.5429 0.212769 62.9788 0.212769ZM61.9575 23.0213H57.8724V7.45889C57.8724 4.94602 59.6295 2.84327 61.9575 2.35977V23.0213Z" fill="black"/>
</svg>
